<?xml version="1.0" encoding="UTF-8"?>
<!-- Generator: visioncortex VTracer 0.6.4 -->
<svg version="1.1" xmlns="http://www.w3.org/2000/svg" width="635" height="634">
<path d="M0 0 C1.07 -0.01 2.14 -0.02 3.24 -0.02 C6.84 -0.04 10.43 -0.03 14.02 -0.01 C16.6 -0.02 19.17 -0.03 21.75 -0.04 C28.02 -0.06 34.28 -0.06 40.55 -0.04 C45.65 -0.03 50.74 -0.03 55.84 -0.03 C56.56 -0.03 57.29 -0.04 58.03 -0.04 C59.51 -0.04 60.98 -0.04 62.45 -0.04 C76.26 -0.06 90.08 -0.04 103.89 -0.01 C115.74 0.01 127.59 0.01 139.44 -0.02 C153.21 -0.04 166.97 -0.05 180.73 -0.04 C182.2 -0.04 183.67 -0.04 185.13 -0.03 C186.22 -0.03 186.22 -0.03 187.32 -0.03 C192.41 -0.03 197.5 -0.03 202.59 -0.05 C209.44 -0.06 216.29 -0.05 223.13 -0.02 C225.65 -0.02 228.17 -0.02 230.68 -0.03 C234.11 -0.04 237.54 -0.02 240.97 0 C242.47 -0.02 242.47 -0.02 244.01 -0.03 C248.46 0.03 250.82 0.2 254.61 2.69 C256.92 6.32 257.17 9.15 257.09 13.32 C257.1 14.08 257.1 14.85 257.11 15.64 C257.12 18.2 257.09 20.76 257.07 23.32 C257.07 25.16 257.07 27 257.07 28.84 C257.08 32.79 257.07 36.75 257.05 40.7 C257.01 46.96 257.02 53.21 257.03 59.46 C257.04 72.73 257.02 85.99 256.99 99.26 C256.95 113.59 256.93 127.92 256.95 142.25 C256.96 148.47 256.94 154.68 256.91 160.9 C256.89 164.77 256.9 168.63 256.91 172.49 C256.91 174.29 256.9 176.08 256.88 177.88 C256.86 180.32 256.86 182.76 256.88 185.21 C256.86 186.28 256.86 186.28 256.84 187.38 C256.82 189.59 256.82 189.59 257.49 192.63 C259.92 194.52 259.92 194.52 262.49 195.63 C262.49 196.29 262.49 196.95 262.49 197.63 C263.19 197.86 263.9 198.08 264.62 198.31 C268.11 199.92 270.57 202.19 273.3 204.82 C274.36 205.82 275.42 206.82 276.48 207.81 C276.99 208.3 277.5 208.78 278.03 209.28 C279.95 211.06 281.93 212.76 283.92 214.45 C287.18 217.27 289.91 220.17 292.49 223.63 C292.49 224.29 292.49 224.95 292.49 225.63 C293.08 225.9 293.68 226.16 294.3 226.44 C296.57 227.68 297.82 228.86 299.5 230.82 C300.03 231.44 300.56 232.05 301.1 232.69 C301.64 233.33 302.18 233.97 302.74 234.63 C303.29 235.28 303.84 235.92 304.42 236.58 C308.49 241.37 308.49 241.37 308.49 243.63 C309.15 243.63 309.81 243.63 310.49 243.63 C310.49 244.62 310.49 245.61 310.49 246.63 C311.15 246.63 311.81 246.63 312.49 246.63 C312.81 247.21 313.14 247.78 313.48 248.37 C315 251.04 316.52 253.71 318.05 256.38 C318.6 257.35 319.15 258.31 319.71 259.3 C322.58 264.33 325.48 269.34 328.42 274.32 C333.91 283.75 338.1 293.36 341.76 303.63 C342.42 305.46 343.11 307.29 343.8 309.12 C349.85 325.89 352.72 343.94 354.49 361.63 C354.82 361.63 355.15 361.63 355.49 361.63 C355.49 375.82 355.49 390.01 355.49 404.63 C355.16 404.63 354.83 404.63 354.49 404.63 C354.4 405.37 354.31 406.1 354.21 406.86 C349.67 443.12 338.68 474.37 320.48 505.91 C319.62 507.4 318.79 508.9 317.97 510.4 C314.4 516.75 309.92 522.05 305.16 527.52 C302.91 530.11 300.8 532.77 298.74 535.51 C295.63 539.57 292.18 543.11 288.49 546.63 C287.68 547.44 286.88 548.24 286.05 549.07 C285.2 549.92 284.36 550.76 283.49 551.63 C282.96 552.2 282.43 552.76 281.89 553.33 C272.56 563.09 261.43 570.91 250.26 578.41 C248.91 579.34 247.58 580.3 246.26 581.26 C240.27 585.6 234.19 589.02 227.49 592.13 C226.48 592.61 225.47 593.08 224.44 593.57 C199.31 605.22 173.03 613.35 145.39 616.17 C141.71 616.2 141.71 616.2 140.49 617.63 C137.54 617.74 134.62 617.77 131.67 617.77 C130.35 617.77 130.35 617.77 128.99 617.77 C127.12 617.77 125.25 617.77 123.38 617.77 C120.5 617.76 117.62 617.77 114.74 617.77 C112.93 617.77 111.11 617.77 109.3 617.77 C108 617.77 108 617.77 106.67 617.77 C100.6 617.75 100.6 617.75 99.49 616.63 C97.7 616.44 95.91 616.25 94.12 616.09 C64.42 613.45 34.77 603.55 8.49 589.63 C7.52 589.14 6.56 588.65 5.56 588.14 C-1.28 584.56 -7.36 580.29 -13.51 575.63 C-14.84 574.64 -16.16 573.66 -17.48 572.67 C-20.84 570.15 -24.2 567.64 -27.55 565.11 C-28.9 564.1 -30.25 563.1 -31.61 562.11 C-35.58 559.2 -39.12 556.23 -42.51 552.63 C-43.06 552.06 -43.61 551.49 -44.17 550.91 C-65.51 528.64 -65.51 528.64 -65.51 524.63 C-66.17 524.63 -66.83 524.63 -67.51 524.63 C-73.13 518.16 -77.1 510.24 -81.21 502.76 C-82.88 499.71 -84.66 496.74 -86.48 493.78 C-102.75 466.8 -110.41 435.72 -113.51 404.63 C-113.84 404.63 -114.17 404.63 -114.51 404.63 C-114.51 390.11 -114.51 375.59 -114.51 360.63 C-114.18 360.63 -113.85 360.63 -113.51 360.63 C-113.42 359.94 -113.33 359.24 -113.24 358.52 C-105.23 297.51 -78.16 245.85 -32.68 204.29 C-30.51 202.63 -30.51 202.63 -27.14 200.78 C-20.25 196.95 -20.25 196.95 -15.71 190.77 C-14.45 185.39 -14.75 179.9 -14.91 174.41 C-14.91 172.58 -14.91 170.74 -14.9 168.91 C-14.89 164.97 -14.93 161.04 -15 157.1 C-15.11 150.88 -15.13 144.65 -15.13 138.43 C-15.15 128.59 -15.23 118.75 -15.34 108.91 C-15.54 91.28 -15.63 73.64 -15.68 56.01 C-15.71 49.82 -15.76 43.63 -15.84 37.45 C-15.88 33.6 -15.91 29.76 -15.93 25.91 C-15.94 24.13 -15.97 22.35 -16 20.57 C-16.04 18.13 -16.05 15.7 -16.06 13.27 C-16.09 12.21 -16.09 12.21 -16.12 11.13 C-16.09 7.62 -15.54 5.67 -13.64 2.7 C-9.11 -0.29 -5.32 -0.06 0 0 Z " fill="#001A1A" transform="translate(198.51416015625,7.365081787109375)"/>
<path d="M0 0 C1.12 -0.05 2.25 -0.1 3.41 -0.15 C6.5 0.38 6.5 0.38 8.91 2.77 C10.5 5.38 10.5 5.38 10.5 7.38 C12.25 7.29 14 7.18 15.75 7.06 C16.72 7 17.7 6.95 18.7 6.89 C21.8 6.32 23.05 5.26 25.5 3.38 C26.82 3.38 28.14 3.38 29.5 3.38 C29.21 6.91 28.75 8.14 26.12 10.62 C21.83 13.49 18.56 13.47 13.5 13.38 C14 16.34 14 16.34 14.5 19.38 C16.46 19.43 18.42 19.47 20.38 19.5 C21.47 19.52 22.56 19.55 23.68 19.57 C26.64 19.68 26.64 19.68 28.5 17.38 C30.66 16.74 30.66 16.74 33.12 16.25 C33.94 16.08 34.76 15.91 35.6 15.74 C36.23 15.62 36.85 15.5 37.5 15.38 C37.16 12.9 37.16 12.9 36.5 10.38 C35.51 9.88 35.51 9.88 34.5 9.38 C34.88 7.44 34.88 7.44 35.5 5.38 C38.5 3.87 41.29 4.28 44.62 4.31 C45.91 4.32 47.19 4.33 48.51 4.34 C49.99 4.36 49.99 4.36 51.5 4.38 C51.5 5.37 51.5 6.35 51.5 7.38 C50.84 7.81 50.18 8.24 49.5 8.69 C47.17 10.28 47.17 10.28 47.06 13.44 C47.28 14.89 47.28 14.89 47.5 16.38 C50.42 18.32 52.13 18.83 55.5 19.38 C55.47 18.62 55.43 17.86 55.39 17.07 C55.37 16.08 55.34 15.09 55.31 14.06 C55.28 13.08 55.24 12.09 55.21 11.07 C55.5 8.38 55.5 8.38 56.8 6.59 C62.69 2.37 71.61 2.62 78.5 3.38 C81.7 4.38 84.54 5.8 87.5 7.38 C90.79 8.85 94.08 10.23 97.5 11.38 C97.5 14.01 97.5 16.66 97.5 19.38 C99.48 20.03 101.46 20.69 103.5 21.38 C102.62 26.25 102.62 26.25 101.5 27.38 C99.54 27.47 97.57 27.56 95.61 27.61 C93.14 28.25 93.14 28.25 91.74 31.42 C91 32.4 90.26 33.37 89.5 34.38 C86.48 34.76 84.44 34.79 81.5 34.44 C80.79 34.39 80.08 34.34 79.34 34.29 C75.23 33.92 72.51 33.25 69.5 30.38 C70.94 26.72 72.56 25.44 76 23.62 C76.79 23.2 77.59 22.77 78.41 22.33 C80.5 21.38 80.5 21.38 82.5 21.38 C80.94 19.23 80.94 19.23 78.5 17.38 C75.12 17 75.12 17 71.5 17.44 C70.28 17.53 69.07 17.63 67.81 17.72 C64.45 18.38 63.05 19.2 60.5 21.38 C59.84 21.38 59.18 21.38 58.5 21.38 C58.5 22.03 58.5 22.69 58.5 23.38 C56.52 23.38 54.54 23.38 52.5 23.38 C52.83 25.35 53.16 27.34 53.5 29.38 C52.86 29.48 52.22 29.58 51.56 29.69 C50.88 29.91 50.2 30.14 49.5 30.38 C49.17 31.37 48.84 32.35 48.5 33.38 C46.52 33.38 44.54 33.38 42.5 33.38 C42.5 31.4 42.5 29.41 42.5 27.38 C41.06 27.63 39.62 27.91 38.19 28.19 C37.39 28.34 36.59 28.49 35.76 28.64 C33.22 29.46 32.29 30.45 30.5 32.38 C28.85 33.1 27.21 33.82 25.55 34.51 C24.87 34.8 24.2 35.08 23.5 35.38 C22.7 35.71 21.9 36.05 21.08 36.39 C16.42 38.45 16.42 38.45 13.71 42.48 C13.36 44.93 13.36 44.93 13.5 48.38 C14.99 48.87 14.99 48.87 16.5 49.38 C17.02 50.03 17.53 50.69 18.06 51.38 C21.38 54.1 24.17 53.98 28.36 54.2 C30.5 54.38 30.5 54.38 31.5 55.38 C31.57 57.06 31.58 58.75 31.56 60.44 C31.55 61.36 31.54 62.28 31.54 63.22 C31.52 64.29 31.52 64.29 31.5 65.38 C33.15 65.38 34.8 65.38 36.5 65.38 C36.71 64.3 36.91 63.23 37.12 62.12 C38.81 57.54 40.2 56.56 44.5 54.38 C46.81 53.72 49.12 53.06 51.5 52.38 C51.83 47.09 52.16 41.81 52.5 36.38 C60.33 33.99 66.54 34.77 74.5 36.38 C74.5 39.68 74.5 42.97 74.5 46.38 C78.83 45.37 82.55 44.42 86.5 42.38 C87.49 42.38 88.48 42.38 89.5 42.38 C89.49 43.18 89.48 43.99 89.47 44.82 C89.35 50.94 89.35 50.94 92.12 56 C93.4 56.74 94.68 57.46 95.98 58.15 C97.5 59.38 97.5 59.38 97.96 61.44 C97.94 63.69 97.94 63.69 97.5 67.38 C96.51 67.7 95.52 68.03 94.5 68.38 C94.5 70.36 94.5 72.33 94.5 74.38 C95.82 74.7 97.14 75.03 98.5 75.38 C98.83 77.36 99.16 79.33 99.5 81.38 C96.2 81.38 92.9 81.38 89.5 81.38 C89.5 80.72 89.5 80.06 89.5 79.38 C88.18 79.05 86.86 78.72 85.5 78.38 C85.17 76.73 84.84 75.07 84.5 73.38 C85.49 73.38 86.48 73.38 87.5 73.38 C87.5 71.39 87.5 69.42 87.5 67.38 C85.98 68.37 85.98 68.37 84.44 69.38 C80.68 71.51 77.85 71.96 73.5 71.38 C72.5 70.38 71.5 69.38 70.5 68.38 C66.87 68.12 66.87 68.12 63.5 68.38 C62.51 70.36 62.51 70.36 61.5 72.38 C63.81 73.03 66.12 73.69 68.5 74.38 C68.17 76.02 67.84 77.68 67.5 79.38 C66.18 79.38 64.86 79.38 63.5 79.38 C63.5 78.72 63.5 78.06 63.5 77.38 C57.8 78.57 55.43 79.95 51.69 84.62 C47.13 89.95 42.6 93.07 36.5 96.38 C30.83 100.24 26.37 105.65 24 112.12 C22.18 116.07 20.29 117.36 16.5 119.38 C15.84 119.38 15.18 119.38 14.5 119.38 C14.5 120.03 14.5 120.69 14.5 121.38 C12.9 122.61 11.24 123.76 9.56 124.88 C5.93 127.08 5.93 127.08 3.5 130.38 C3.27 132.41 3.09 134.46 2.94 136.5 C2.81 138.14 2.81 138.14 2.68 139.82 C2.62 140.66 2.56 141.51 2.5 142.38 C1.18 142.38 -0.14 142.38 -1.5 142.38 C-1.5 141.72 -1.5 141.06 -1.5 140.38 C-2.82 140.38 -4.14 140.38 -5.5 140.38 C-5.5 137.4 -5.5 134.44 -5.5 131.38 C-9.98 131.4 -14.46 131.48 -18.94 131.56 C-20.2 131.57 -21.46 131.57 -22.76 131.58 C-31.96 131.8 -37.87 133.37 -44.84 139.4 C-51.03 146.8 -52.12 152.82 -51.5 162.38 C-51.21 163.72 -50.89 165.06 -50.5 166.38 C-48.23 166.29 -45.96 166.18 -43.69 166.06 C-41.79 165.98 -41.79 165.98 -39.86 165.89 C-36.37 165.35 -35.61 165.02 -33.5 162.38 C-31.84 161.69 -30.18 161.02 -28.5 160.38 C-27.84 159.72 -27.18 159.06 -26.5 158.38 C-23.88 158.75 -23.88 158.75 -21.5 159.38 C-22.09 162.4 -22.73 165.39 -23.5 168.38 C-24.16 168.38 -24.82 168.38 -25.5 168.38 C-25.17 169.37 -24.84 170.36 -24.5 171.38 C-23.89 171.41 -23.27 171.45 -22.64 171.49 C-21.42 171.59 -21.42 171.59 -20.19 171.69 C-19.39 171.75 -18.59 171.8 -17.76 171.86 C-15.07 172.47 -14.14 173.18 -12.5 175.38 C-11.34 181.36 -11.39 187.29 -11.5 193.38 C-1.48 195.14 -1.48 195.14 8.08 193.02 C9.83 191.23 11.2 189.51 12.5 187.38 C14 184.94 14 184.94 15.5 183.38 C20.6 182.68 26.16 183.45 30.5 186.38 C31.49 188.85 31.49 188.85 32.5 191.38 C37.45 191.71 42.4 192.03 47.5 192.38 C47.83 191.06 48.16 189.74 48.5 188.38 C52.05 188.68 53.47 189.35 56.25 191.69 C58.4 194.25 58.88 195.26 59.5 198.38 C60.02 198.89 60.53 199.41 61.06 199.94 C61.54 200.41 62.01 200.89 62.5 201.38 C62.5 202.37 62.5 203.36 62.5 204.38 C64.05 204.29 64.05 204.29 65.64 204.2 C67.01 204.15 68.38 204.11 69.75 204.06 C70.77 204 70.77 204 71.82 203.94 C73.83 203.89 73.83 203.89 77.5 204.38 C81.5 208.29 83.36 212.37 83.62 217.98 C83.62 220.45 83.59 222.91 83.5 225.38 C84.28 225.35 85.07 225.32 85.88 225.29 C89.11 225.4 90.03 226.37 92.5 228.38 C96.66 230.69 100.43 230.49 105.05 230.45 C117.14 230.4 117.14 230.4 121.22 233.33 C122.94 235.75 122.94 235.75 124.28 238.21 C126.09 241.42 128.12 242.14 131.5 243.38 C131.89 247.15 131.88 248.86 129.6 251.98 C128.78 252.83 127.97 253.68 127.12 254.56 C122.34 260.12 120.96 264.16 120.5 271.38 C120.41 272.6 120.31 273.82 120.21 275.07 C120.04 277.52 119.88 279.96 119.75 282.41 C119.48 285.6 119.24 287.63 116.94 289.95 C116.32 290.46 115.7 290.97 115.06 291.5 C114.45 292.02 113.83 292.54 113.19 293.07 C109.74 295.73 107.18 295.48 102.88 295.44 C101.69 295.43 100.5 295.42 99.27 295.41 C98.36 295.4 97.44 295.39 96.5 295.38 C94.45 301.06 93.46 305.92 95.25 311.88 C96.01 319.49 88.35 326.69 83.89 332.31 C82.07 334.65 80.45 336.94 78.88 339.44 C75.85 343.18 72.9 344.62 68.5 346.38 C67.43 346.82 67.43 346.82 66.35 347.28 C62.83 348.7 60.33 349.38 56.5 349.38 C56.97 350.12 57.45 350.86 57.94 351.62 C60.34 355.85 60.34 355.85 60.5 358.38 C59.19 360.62 59.19 360.62 57.5 362.38 C56.84 362.38 56.18 362.38 55.5 362.38 C56.16 364.02 56.82 365.67 57.5 367.38 C59.81 367.7 62.12 368.04 64.5 368.38 C64.44 369.4 64.38 370.42 64.32 371.48 C64.28 372.84 64.23 374.2 64.19 375.56 C64.15 376.24 64.1 376.91 64.06 377.6 C63.96 381.64 64.33 383.17 66.96 386.3 C67.8 386.99 68.64 387.67 69.5 388.38 C70.5 389.38 70.5 389.38 70.56 391.94 C70.54 392.74 70.52 393.55 70.5 394.38 C68.96 394.46 67.42 394.51 65.88 394.56 C65.02 394.6 64.16 394.63 63.27 394.67 C57.49 394.06 53.5 390.8 49.31 387 C48.47 386.25 47.63 385.5 46.77 384.73 C44.53 382.41 43.11 380.15 41.5 377.38 C41.01 376.9 40.52 376.43 40.02 375.94 C34.16 369.88 35.07 360.57 35.06 352.8 C35.07 347.46 35.07 347.46 32.59 342.92 C31.9 342.41 31.21 341.9 30.5 341.38 C28.22 337.95 28.28 336.69 28.38 332.69 C28.39 331.69 28.41 330.7 28.43 329.68 C28.45 328.92 28.48 328.16 28.5 327.38 C29.16 327.38 29.82 327.38 30.5 327.38 C30.24 323.94 30.24 323.94 29.5 320.38 C28.51 319.71 27.52 319.06 26.5 318.38 C26.21 315.67 26.11 313.18 26.13 310.48 C26.11 308.87 26.09 307.26 26.08 305.65 C26.07 303.11 26.06 300.56 26.06 298.02 C26.06 295.57 26.03 293.12 26 290.67 C26.02 289.53 26.02 289.53 26.03 288.38 C25.96 283.41 25.05 280.86 21.5 277.38 C18.87 275.56 18.87 275.56 16 274.12 C15.06 273.62 14.12 273.12 13.16 272.61 C10.63 271.31 10.63 271.31 8.27 270.91 C7.68 270.73 7.1 270.56 6.5 270.38 C4.4 266.41 3.5 263.89 3.5 259.38 C2.84 259.38 2.18 259.38 1.5 259.38 C1.31 258.71 1.13 258.06 0.94 257.38 C-0.8 253.74 -3.13 251.19 -5.84 248.24 C-10.62 242.86 -9.72 238.23 -9.5 231.38 C-9.53 230.45 -9.56 229.53 -9.59 228.57 C-9.56 225.89 -9.43 223.89 -8.5 221.38 C-5.53 218.47 -1.81 215.38 2.5 215.38 C2 207.95 2 207.95 1.5 200.38 C-0.25 200.23 -0.25 200.23 -2.04 200.08 C-3.59 199.93 -5.14 199.78 -6.69 199.62 C-7.46 199.56 -8.23 199.5 -9.02 199.44 C-13.99 198.93 -16.89 198.08 -20.5 194.38 C-21.63 192.89 -22.71 191.36 -23.75 189.81 C-27.38 184.99 -30.72 183.63 -36.5 182.38 C-39.94 181.5 -39.94 181.5 -42.5 180.38 C-43.88 177.75 -43.88 177.75 -44.5 175.38 C-46.5 175.33 -48.5 175.33 -50.5 175.38 C-50.83 175.71 -51.16 176.03 -51.5 176.38 C-58.28 176.31 -66 175.23 -71.36 170.86 C-75.87 165.74 -75.91 161.12 -76.09 154.51 C-76.64 150.29 -78.32 148.05 -81.12 144.96 C-82.5 143.38 -82.5 143.38 -83.5 140.38 C-84.16 140.38 -84.82 140.38 -85.5 140.38 C-87.31 137.17 -88.02 134.24 -88.62 130.62 C-88.79 129.64 -88.96 128.66 -89.13 127.64 C-89.25 126.89 -89.38 126.15 -89.5 125.38 C-90.99 124.88 -90.99 124.88 -92.5 124.38 C-92.31 132.59 -90.45 139.43 -84.5 145.38 C-84.3 147.54 -84.3 147.54 -84.38 150 C-84.39 150.82 -84.41 151.63 -84.43 152.48 C-84.45 153.1 -84.48 153.73 -84.5 154.38 C-90.94 154.74 -90.94 154.74 -93.44 153.12 C-94.5 151.38 -94.5 151.38 -94.5 147.38 C-95.16 147.38 -95.82 147.38 -96.5 147.38 C-97.16 144.74 -97.82 142.1 -98.5 139.38 C-99.16 139.38 -99.82 139.38 -100.5 139.38 C-102 134.87 -101.3 130.43 -101.05 125.72 C-101.18 122.23 -101.18 122.23 -103.83 120 C-106.46 118.27 -106.46 118.27 -109.5 117.38 C-110.51 100.39 -92.32 74.24 -81.5 61.38 C-80.21 59.73 -78.92 58.08 -77.62 56.44 C-74.17 52.13 -70.56 48 -66.83 43.94 C-65.26 42.21 -63.72 40.46 -62.2 38.69 C-56.13 31.7 -49.55 26.09 -42.14 20.61 C-40.64 19.48 -39.18 18.29 -37.73 17.09 C-33.67 13.87 -30.8 11.87 -25.5 12.19 C-20.3 13.16 -15.16 14.88 -10.5 17.38 C-10 18.37 -10 18.37 -9.5 19.38 C-6.45 19.84 -6.45 19.84 -2.94 20 C-1.14 20.11 -1.14 20.11 0.69 20.23 C1.62 20.28 2.55 20.32 3.5 20.38 C2.51 17.9 2.51 17.9 1.5 15.38 C-1.47 15.38 -4.44 15.38 -7.5 15.38 C-8 12.9 -8 12.9 -8.5 10.38 C-11.47 10.04 -14.44 9.72 -17.5 9.38 C-16.14 5.31 -13.9 3.91 -10.5 1.38 C-7.07 0.18 -3.61 0.11 0 0 Z " fill="#00FADB" transform="translate(226.5,199.625)"/>
<path d="M0 0 C0.5 5.94 0.5 5.94 1 12 C2.63 12.43 4.26 12.87 5.94 13.31 C9.61 14.31 13.22 15.38 16.81 16.62 C20.19 17.78 23.45 18.55 27 19 C27 17.02 27 15.04 27 13 C31.35 11.55 35.46 11.35 40 12 C42.64 13.39 43.95 14.74 46 17 C46 17.66 46 18.32 46 19 C51.94 19.33 57.88 19.66 64 20 C66 23.99 66.2 25.7 66 30 C66.66 30 67.32 30 68 30 C68.65 33.92 69.3 37.83 69.94 41.75 C70.21 43.39 70.21 43.39 70.49 45.06 C76.4 81.39 73.73 119.92 59.74 154.15 C59.03 155.94 58.36 157.74 57.71 159.55 C50.2 179.71 38.32 204.37 22 219 C21.34 219 20.68 219 20 219 C20 217.75 20 217.75 19.99 216.47 C19.71 208.21 18.2 203.38 13 197 C10.93 193.9 10.76 193.27 10.8 189.77 C10.81 188.97 10.82 188.16 10.82 187.34 C10.85 186.09 10.85 186.09 10.88 184.81 C10.88 183.97 10.89 183.12 10.9 182.25 C10.93 180.17 10.96 178.08 11 176 C10.34 176 9.68 176 9 176 C7.95 174.36 6.95 172.7 6 171 C5.67 170.67 5.34 170.34 5 170 C4.93 168.31 4.92 166.62 4.94 164.94 C4.95 164.02 4.96 163.1 4.96 162.15 C4.98 161.44 4.99 160.73 5 160 C5.66 160 6.32 160 7 160 C7.1 159.48 7.21 158.97 7.31 158.44 C8 156 8 156 9.56 152.56 C11.33 148.35 11.33 148.35 11 144 C9.96 142.08 8.79 140.28 7.57 138.46 C4.94 134.34 2.74 129.98 0.45 125.66 C-0.76 123.15 -0.76 123.15 -2 122 C-2.09 120.44 -2.11 118.87 -2.1 117.31 C-2.09 115.89 -2.09 115.89 -2.09 114.45 C-2.08 112.96 -2.08 112.96 -2.06 111.44 C-2.06 110.44 -2.05 109.44 -2.05 108.42 C-2.04 105.94 -2.02 103.47 -2 101 C-2.8 100.97 -3.59 100.95 -4.41 100.92 C-11.42 100.55 -15.92 100.08 -21 95 C-22.35 94.77 -23.7 94.59 -25.06 94.44 C-26.36 94.29 -27.66 94.15 -29 94 C-29.5 95.49 -29.5 95.49 -30 97 C-30.66 97 -31.32 97 -32 97 C-32 97.66 -32 98.32 -32 99 C-36.06 99.22 -40.11 99.41 -44.17 99.59 C-45.55 99.66 -46.93 99.72 -48.31 99.8 C-50.29 99.91 -52.28 99.99 -54.27 100.07 C-55.46 100.13 -56.65 100.19 -57.88 100.25 C-61.35 99.97 -62.57 99.43 -65 97 C-65.97 95.3 -66.94 93.6 -67.86 91.88 C-69.85 88.59 -72.52 85.94 -75.19 83.19 C-80.73 77.38 -82.2 74.59 -82.25 66.5 C-82.28 65.32 -82.28 65.32 -82.31 64.12 C-82.33 61.84 -82.33 61.84 -82 58 C-81.01 57.34 -80.02 56.68 -79 56 C-77.79 52.95 -77.79 52.95 -77 50 C-77.93 49.81 -77.93 49.81 -78.88 49.62 C-81 49 -81 49 -83 47 C-83.75 43.81 -83.75 43.81 -83 40 C-80 37.18 -76.47 35.19 -73 33 C-70.78 31.44 -68.61 29.82 -66.44 28.19 C-65.43 27.44 -64.41 26.69 -63.37 25.92 C-60.94 24.22 -60.94 24.22 -60 22 C-59.73 19.18 -59.55 16.36 -59.38 13.53 C-59 11 -59 11 -57 9 C-51.19 5.91 -46.08 5.48 -39.56 5.31 C-38.64 5.28 -37.72 5.24 -36.77 5.21 C-34.51 5.13 -32.26 5.06 -30 5 C-30 4.34 -30 3.68 -30 3 C-20.12 -0.73 -10.38 -0.29 0 0 Z " fill="#00FCDC" transform="translate(463,310)"/>
<path d="M0 0 C79.2 0 158.4 0 240 0 C240 54.78 240 109.56 240 166 C230.16 162.07 230.16 162.07 227 159 C225.82 155.84 225.8 152.79 225.75 149.44 C225.64 147.54 225.53 145.65 225.41 143.75 C225.32 142.31 225.32 142.31 225.23 140.84 C222.04 101.57 202.27 61.05 172.72 35.16 C153.88 20.21 132.96 13.92 109.17 16.4 C85.2 19.71 64.83 35.54 50 54 C26.94 84.88 16.03 121.84 14 160 C13.18 160.25 12.35 160.5 11.5 160.75 C7.53 162.17 3.77 164.12 0 166 C0 111.22 0 56.44 0 0 Z " fill="#00FDDC" transform="translate(199,24)"/>
<path d="M0 0 C2.48 0.93 3.63 2.05 5.42 3.99 C6.04 4.65 6.66 5.31 7.29 5.99 C7.94 6.7 8.59 7.42 9.25 8.15 C9.92 8.88 10.59 9.61 11.28 10.36 C16.44 16 21.34 21.77 26.07 27.77 C26.82 28.71 27.58 29.65 28.36 30.62 C34.18 37.94 39.05 45.42 43.49 53.65 C44.51 55.55 45.56 57.43 46.6 59.31 C50.81 66.96 53.99 74.31 56.07 82.77 C50.82 83.21 50.82 83.21 48.07 82.77 C46.19 80.65 46.19 80.65 45.07 77.77 C44.67 76.78 44.28 75.79 43.88 74.77 C43.11 71.94 42.89 69.69 43.07 66.77 C40.04 67.49 40.04 67.49 37.07 69.77 C35.62 73.36 34.8 76.99 34.07 80.77 C29.73 79.89 27.81 78.34 25.07 74.77 C24.74 72.72 24.74 72.72 24.63 70.46 C24.31 64.94 21.83 61.68 18.07 57.77 C14.11 54.53 11.1 54.48 6.07 54.77 C6.48 59.66 8.39 61.66 12.07 64.77 C14.35 66.23 16.66 67.5 19.07 68.77 C18.95 70.4 18.82 72.03 18.69 73.65 C18.62 74.55 18.55 75.46 18.48 76.39 C18.07 78.77 18.07 78.77 16.07 80.77 C13.9 80.97 13.9 80.97 11.44 80.9 C10.62 80.88 9.81 80.86 8.96 80.85 C8.34 80.82 7.71 80.8 7.07 80.77 C6.74 79.12 6.41 77.47 6.07 75.77 C8.38 75.77 10.69 75.77 13.07 75.77 C11.59 72 9.63 70.56 6.25 68.4 C3.07 66.28 0.47 64.37 -1.87 61.34 C-2.55 60.49 -3.23 59.65 -3.93 58.77 C-4.92 58.77 -5.91 58.77 -6.93 58.77 C-7.59 59.76 -8.25 60.75 -8.93 61.77 C-10.92 62.11 -10.92 62.11 -13.25 62.15 C-16.84 62.44 -17.77 62.65 -20.75 64.96 C-24 69.14 -26.73 72.98 -28.55 77.97 C-28.81 78.69 -29.08 79.4 -29.34 80.14 C-29.54 80.68 -29.73 81.22 -29.93 81.77 C-33.37 81.86 -36.81 81.92 -40.25 81.96 C-41.22 81.99 -42.2 82.01 -43.21 82.04 C-44.14 82.05 -45.08 82.06 -46.05 82.07 C-47.34 82.09 -47.34 82.09 -48.67 82.12 C-51.42 81.7 -52.23 80.93 -53.93 78.77 C-55.65 75.95 -56.27 73.7 -56.37 70.4 C-56.41 69.67 -56.45 68.94 -56.49 68.19 C-55.65 64.55 -53.88 61.99 -50.93 59.77 C-47.94 59.29 -45.82 59.15 -42.87 59.34 C-41.81 59.37 -41.81 59.37 -40.73 59.39 C-37.36 59.51 -34.16 59.76 -30.93 60.77 C-31.53 58.42 -32.2 56.09 -32.93 53.77 C-33.59 53.44 -34.25 53.11 -34.93 52.77 C-34.6 50.13 -34.27 47.49 -33.93 44.77 C-29.93 43.44 -25.93 42.11 -21.93 40.77 C-20.59 39.02 -20.59 39.02 -19.43 36.9 C-17.84 34.13 -16.4 31.83 -13.93 29.77 C-12.03 29.43 -12.03 29.43 -9.92 29.48 C-9.17 29.49 -8.41 29.5 -7.63 29.51 C-6.84 29.54 -6.06 29.56 -5.25 29.59 C-4.05 29.61 -4.05 29.61 -2.83 29.63 C-0.87 29.66 1.1 29.72 3.07 29.77 C3.07 27.13 3.07 24.49 3.07 21.77 C-0.23 22.1 -3.53 22.43 -6.93 22.77 C-7.51 21.83 -8.09 20.88 -8.68 19.9 C-10.76 17.01 -11.69 15.93 -14.93 14.77 C-14.85 9.56 -14.85 9.56 -13.93 6.77 C-11.48 5.02 -9.61 3.96 -6.93 2.77 C-6.05 2.18 -5.16 1.58 -4.25 0.96 C-1.93 -0.23 -1.93 -0.23 0 0 Z " fill="#00F3D8" transform="translate(463.934814453125,229.22509765625)"/>
<path d="M0 0 C0.99 0.33 1.98 0.66 3 1 C3 1.66 3 2.32 3 3 C3.6 2.65 4.2 2.3 4.81 1.94 C7 1 7 1 10 2 C10 3.32 10 4.64 10 6 C14.29 6.99 18.58 7.98 23 9 C23 12.3 23 15.6 23 19 C24.65 19 26.3 19 28 19 C28 19.33 28 19.66 28 20 C26.02 20 24.04 20 22 20 C22 16.7 22 13.4 22 10 C19.46 9.8 16.92 9.62 14.38 9.44 C13.31 9.35 13.31 9.35 12.21 9.27 C11.51 9.22 10.81 9.17 10.09 9.12 C9.13 9.05 9.13 9.05 8.15 8.98 C5.41 9.01 2.7 9.55 0 10 C0 15.28 0 20.56 0 26 C-2.85 26.99 -2.85 26.99 -5.75 28 C-10.12 29.79 -12.66 31 -14.75 35.31 C-15.16 36.53 -15.57 37.75 -16 39 C-17.65 39 -19.3 39 -21 39 C-21.5 34.05 -21.5 34.05 -22 29 C-23.51 28.96 -25.01 28.92 -26.56 28.88 C-31.36 28.38 -34.33 27.22 -37.76 23.81 C-39.58 21.15 -40.04 19.1 -39.76 15.89 C-38.23 12.07 -34.52 10.72 -31 9 C-30.11 8.44 -29.23 7.89 -28.31 7.31 C-26 6 -26 6 -23.31 4.94 C-20.86 4.12 -20.86 4.12 -19 2 C-16.84 1.59 -16.84 1.59 -14.38 1.38 C-13.15 1.26 -13.15 1.26 -11.9 1.15 C-11.27 1.1 -10.65 1.05 -10 1 C-10 2.98 -10 4.96 -10 7 C-8.02 7 -6.04 7 -4 7 C-3.67 5.68 -3.34 4.36 -3 3 C-1.68 3 -0.36 3 1 3 C0.5 1.51 0.5 1.51 0 0 Z " fill="#001818" transform="translate(279,226)"/>
<path d="M0 0 C3.29 1.47 6.58 2.86 10 4 C10 6.64 10 9.28 10 12 C11.98 12.66 13.96 13.32 16 14 C15.12 18.88 15.12 18.88 14 20 C12.04 20.1 10.07 20.19 8.11 20.23 C5.64 20.88 5.64 20.88 4.24 24.05 C3.5 25.02 2.76 26 2 27 C-1.02 27.38 -3.06 27.41 -6 27.06 C-6.71 27.01 -7.42 26.96 -8.16 26.91 C-12.27 26.54 -14.99 25.88 -18 23 C-16.56 19.35 -14.94 18.06 -11.5 16.25 C-10.71 15.82 -9.91 15.39 -9.09 14.95 C-7 14 -7 14 -5 14 C-6.56 11.85 -6.56 11.85 -9 10 C-12.38 9.62 -12.38 9.62 -16 10.06 C-17.22 10.16 -18.43 10.25 -19.69 10.35 C-23.05 11.01 -24.45 11.83 -27 14 C-27.66 14 -28.32 14 -29 14 C-29 14.66 -29 15.32 -29 16 C-30.98 16 -32.96 16 -35 16 C-35.33 16.99 -35.66 17.98 -36 19 C-36 17.68 -36 16.36 -36 15 C-35.01 14.67 -34.02 14.34 -33 14 C-34.32 13.34 -35.64 12.68 -37 12 C-35.35 12 -33.7 12 -32 12 C-32.03 11.24 -32.07 10.48 -32.11 9.7 C-32.13 8.71 -32.16 7.71 -32.19 6.69 C-32.22 5.7 -32.26 4.72 -32.29 3.7 C-32 1 -32 1 -30.7 -0.78 C-21.83 -7.13 -8.86 -4.73 0 0 Z " fill="#00F0D8" transform="translate(314,207)"/>
<path d="M0 0 C4.36 2.47 7.04 5.34 9.31 9.88 C9.9 15.55 9.61 20.04 6.31 24.88 C2.31 28.91 -1.27 31 -7 31.19 C-11.63 31.13 -14.12 29.94 -17.69 26.88 C-21.99 22.11 -23.05 18.44 -22.97 12.16 C-22.38 7.38 -19.54 4.63 -16.06 1.56 C-10.83 -2.15 -5.95 -1.82 0 0 Z " fill="#001E1E" transform="translate(417.6875,34.125)"/>
<path d="M0 0 C4.36 2.47 7.04 5.34 9.31 9.88 C9.9 15.55 9.61 20.04 6.31 24.88 C1.88 29.45 -1.36 30.69 -7.56 31.19 C-11.92 31.12 -14.33 29.7 -17.69 26.88 C-21.99 22.11 -23.05 18.44 -22.97 12.16 C-22.38 7.38 -19.54 4.63 -16.06 1.56 C-10.83 -2.15 -5.95 -1.82 0 0 Z " fill="#001E1E" transform="translate(234.6875,34.125)"/>
<path d="M0 0 C0.51 1.27 1 2.54 1.5 3.81 C1.78 4.52 2.06 5.23 2.34 5.96 C3 8 3 8 3 11 C3.66 11 4.32 11 5 11 C5 11.66 5 12.32 5 13 C5.99 12.67 6.98 12.34 8 12 C8.66 12 9.32 12 10 12 C9.67 11.67 9.34 11.34 9 11 C8.96 9.33 8.96 7.67 9 6 C9.62 5.71 10.24 5.42 10.88 5.12 C13.13 4.06 13.13 4.06 15 2 C17.62 1.38 17.62 1.38 20 1 C20 1.66 20 2.32 20 3 C21.65 3 23.3 3 25 3 C25.66 4.65 26.32 6.3 27 8 C30.3 7.67 33.6 7.34 37 7 C37 9.64 37 12.28 37 15 C35.82 15.03 34.64 15.05 33.42 15.08 C31.86 15.13 30.31 15.19 28.75 15.25 C27.97 15.26 27.2 15.28 26.39 15.29 C22.67 15.45 20.61 15.54 17.57 17.82 C16.2 19.73 15.11 21.5 14.12 23.62 C12 27 12 27 9.06 28.44 C2.34 29.67 2.34 29.67 -1 28 C-1.85 28 -2.69 28 -3.56 28 C-4.37 28 -5.17 28 -6 28 C-7 27 -7 27 -7.19 23.56 C-7 20 -7 20 -5 18 C-2.38 17.88 -2.38 17.88 0 18 C-0.63 15.03 -0.63 15.03 -2 12 C-3.65 11.3 -5.32 10.63 -7 10 C-8.44 7.62 -8.44 7.62 -9 5 C-8.25 2.75 -8.25 2.75 -7 1 C-4.54 -0.23 -2.72 -0.07 0 0 Z " fill="#001414" transform="translate(430,244)"/>
<path d="M0 0 C0.51 1.27 1 2.54 1.5 3.81 C1.78 4.52 2.06 5.23 2.34 5.96 C3 8 3 8 3 11 C3.66 11 4.32 11 5 11 C5.68 12.18 5.68 12.18 6.38 13.38 C8.08 16.12 9.05 16.88 12 18 C11.66 20.53 11.33 22.5 9.91 24.66 C6.96 26.73 4.35 26.28 0.81 26.19 C-1.1 26.15 -1.1 26.15 -3.04 26.11 C-4.51 26.05 -4.51 26.05 -6 26 C-6.04 23.67 -6.04 21.33 -6 19 C-5 18 -5 18 -2.44 17.94 C-1.23 17.97 -1.23 17.97 0 18 C-0.63 15.03 -0.63 15.03 -2 12 C-3.65 11.3 -5.32 10.63 -7 10 C-8.44 7.62 -8.44 7.62 -9 5 C-8.25 2.75 -8.25 2.75 -7 1 C-4.54 -0.23 -2.72 -0.07 0 0 Z " fill="#00E2CE" transform="translate(430,244)"/>
<path d="M0 0 C0.89 0.1 1.77 0.21 2.69 0.31 C1.7 0.81 1.7 0.81 0.69 1.31 C0.69 2.3 0.69 3.29 0.69 4.31 C2.67 4.34 4.65 4.36 6.62 4.38 C8.28 4.39 8.28 4.39 9.96 4.41 C12.6 4.63 12.6 4.63 13.69 3.31 C15.35 3.27 17.02 3.27 18.69 3.31 C18.69 4.3 18.69 5.29 18.69 6.31 C17.76 6.44 17.76 6.44 16.81 6.56 C14.5 7.13 14.5 7.13 13.44 9.38 C13.19 10.01 12.94 10.65 12.69 11.31 C10.38 10.98 8.07 10.65 5.69 10.31 C5.69 9.32 5.69 8.33 5.69 7.31 C5.03 7.31 4.37 7.31 3.69 7.31 C3.94 9.66 4.28 11.99 4.69 14.31 C5.35 14.64 6.01 14.97 6.69 15.31 C6.69 16.3 6.69 17.29 6.69 18.31 C5.37 18.64 4.05 18.97 2.69 19.31 C3.02 17.99 3.35 16.67 3.69 15.31 C2.55 15 1.42 14.69 0.25 14.38 C-3.31 13.31 -3.31 13.31 -4.31 12.31 C-4.35 9.98 -4.35 7.65 -4.31 5.31 C-5.3 5.81 -5.3 5.81 -6.31 6.31 C-6.56 7.12 -6.81 7.92 -7.06 8.75 C-8.31 11.31 -8.31 11.31 -11.44 12.62 C-12.39 12.85 -13.33 13.08 -14.31 13.31 C-5.04 0.48 -5.04 0.48 0 0 Z " fill="#002323" transform="translate(287.3125,276.6875)"/>
<path d="M0 0 C0.66 0.33 1.32 0.66 2 1 C1.67 1.99 1.34 2.98 1 4 C2.32 4.66 3.64 5.32 5 6 C4.67 7.65 4.34 9.3 4 11 C3.06 11.18 3.06 11.18 2.1 11.37 C1.28 11.53 0.47 11.7 -0.38 11.88 C-1.59 12.12 -1.59 12.12 -2.84 12.37 C-5.19 12.87 -5.19 12.87 -7 15 C-9.79 15.23 -9.79 15.23 -13.06 15.19 C-14.69 15.18 -14.69 15.18 -16.35 15.17 C-19 15 -19 15 -20 14 C-20.04 12 -20.04 10 -20 8 C-19.02 7.85 -19.02 7.85 -18.02 7.7 C-12.37 6.74 -8.52 5.57 -4 2 C-4 2.99 -4 3.98 -4 5 C-3.34 5 -2.68 5 -2 5 C-1.34 3.35 -0.68 1.7 0 0 Z " fill="#001C1C" transform="translate(260,205)"/>
<path d="M0 0 C4.11 0.28 3.98 0.6 6.62 3.25 C10.38 3.66 12.68 3.88 15.88 1.75 C16.45 1.25 17.03 0.76 17.62 0.25 C18.62 0.25 19.61 0.25 20.62 0.25 C20.62 2.23 20.62 4.21 20.62 6.25 C19.63 6.25 18.64 6.25 17.62 6.25 C17.3 7.57 16.96 8.89 16.62 10.25 C16.62 8.93 16.62 7.61 16.62 6.25 C13.99 6.58 11.35 6.91 8.62 7.25 C9.29 7.58 9.94 7.91 10.62 8.25 C9.62 11.25 9.62 11.25 7.88 12.5 C5.1 13.43 3.41 13.02 0.62 12.25 C0.95 10.6 1.29 8.95 1.62 7.25 C0.45 7.03 0.45 7.03 -0.75 6.81 C-3.38 6.25 -3.38 6.25 -5.38 5.25 C-4.26 0.32 -4.26 0.32 0 0 Z " fill="#002525" transform="translate(293.375,266.75)"/>
<path d="M0 0 C0.33 0.99 0.66 1.98 1 3 C-1.31 3 -3.62 3 -6 3 C-5.67 4.32 -5.34 5.64 -5 7 C-2.69 7.33 -0.38 7.66 2 8 C1.34 8.66 0.68 9.32 0 10 C-0.99 10 -1.98 10 -3 10 C-2.5 10.95 -2.01 11.9 -1.5 12.88 C0 16 0 16 0 18 C-0.66 18 -1.32 18 -2 18 C-2.33 18.66 -2.66 19.32 -3 20 C-3.99 20 -4.98 20 -6 20 C-4.68 20.99 -3.36 21.98 -2 23 C-6.1 22.43 -9.07 21.57 -13 20 C-13 16.04 -13 12.08 -13 8 C-17.95 8 -22.9 8 -28 8 C-28 7.67 -28 7.34 -28 7 C-22.72 7 -17.44 7 -12 7 C-11.67 10.96 -11.34 14.92 -11 19 C-10.01 19 -9.02 19 -8 19 C-8.66 18.01 -9.32 17.02 -10 16 C-9.97 13.26 -9.45 10.72 -9 8 C-8.34 8 -7.68 8 -7 8 C-7 6.02 -7 4.04 -7 2 C-4.69 2 -2.38 2 0 2 C0 1.34 0 0.68 0 0 Z " fill="#002828" transform="translate(476,302)"/>
<path d="M0 0 C0.99 0.33 1.98 0.66 3 1 C3 1.66 3 2.32 3 3 C3.6 2.65 4.2 2.3 4.81 1.94 C7 1 7 1 10 2 C10 3.32 10 4.64 10 6 C14.29 6.99 18.58 7.98 23 9 C23 12.3 23 15.6 23 19 C24.65 19 26.3 19 28 19 C28 19.33 28 19.66 28 20 C26.02 20 24.04 20 22 20 C22 16.7 22 13.4 22 10 C19.46 9.8 16.92 9.62 14.38 9.44 C13.31 9.35 13.31 9.35 12.21 9.27 C11.51 9.22 10.81 9.17 10.09 9.12 C9.13 9.05 9.13 9.05 8.15 8.98 C5.41 9.01 2.7 9.55 0 10 C0 15.28 0 20.56 0 26 C-0.33 26 -0.66 26 -1 26 C-1 20.39 -1 14.78 -1 9 C-3.31 9 -5.62 9 -8 9 C-8.66 8.34 -9.32 7.68 -10 7 C-8.02 7 -6.04 7 -4 7 C-3.67 5.68 -3.34 4.36 -3 3 C-1.68 3 -0.36 3 1 3 C0.67 2.01 0.34 1.02 0 0 Z " fill="#002222" transform="translate(279,226)"/>
<path d="M0 0 C2.97 0.5 2.97 0.5 6 1 C6.33 1.99 6.66 2.98 7 4 C10.3 4 13.6 4 17 4 C17 4.33 17 4.66 17 5 C16.32 5.03 15.65 5.05 14.95 5.08 C9.47 5.34 9.47 5.34 4.62 7.62 C3.27 9.6 2.22 11.51 1.12 13.62 C-1 17 -1 17 -3.94 18.44 C-10.66 19.67 -10.66 19.67 -14 18 C-14.85 18 -15.69 18 -16.56 18 C-17.37 18 -18.17 18 -19 18 C-20 17 -20 17 -20.06 13.44 C-20.04 12.3 -20.02 11.17 -20 10 C-19.67 10 -19.34 10 -19 10 C-19 11.98 -19 13.96 -19 16 C-16.73 15.91 -14.46 15.8 -12.19 15.69 C-10.29 15.6 -10.29 15.6 -8.36 15.51 C-5.09 15.25 -5.09 15.25 -3.05 13.71 C-1.65 11.77 -1.65 11.77 -2 8 C-4.41 6.34 -4.41 6.34 -7 5 C-7.33 4.34 -7.66 3.68 -8 3 C-7.01 2.67 -6.02 2.34 -5 2 C-4.67 2.99 -4.34 3.98 -4 5 C-1.52 5.5 -1.52 5.5 1 6 C0.67 4.02 0.34 2.04 0 0 Z " fill="#002B2B" transform="translate(443,254)"/>
<path d="M0 0 C-1.32 0.33 -2.64 0.66 -4 1 C-4.66 3.97 -5.32 6.94 -6 10 C-2.25 11.37 -2.25 11.37 0.12 10.06 C4.28 8.53 8.62 8.28 13 9 C13.99 10.49 13.99 10.49 15 12 C14.43 11.99 13.86 11.98 13.28 11.96 C3.46 11.66 3.46 11.66 -5 16 C-5.66 16 -6.32 16 -7 16 C-7 16.66 -7 17.32 -7 18 C-8.98 18 -10.96 18 -13 18 C-13.33 18.99 -13.66 19.98 -14 21 C-14 19.68 -14 18.36 -14 17 C-13.01 16.67 -12.02 16.34 -11 16 C-12.32 15.34 -13.64 14.68 -15 14 C-13.35 14 -11.7 14 -10 14 C-10.03 13.24 -10.07 12.48 -10.11 11.7 C-10.13 10.71 -10.16 9.71 -10.19 8.69 C-10.22 7.7 -10.26 6.72 -10.29 5.7 C-10 3 -10 3 -8.65 1.19 C-5.84 -0.84 -3.14 -1.57 0 0 Z " fill="#00DAC9" transform="translate(292,205)"/>
<path d="M0 0 C0.2 2.05 0.39 4.1 0.59 6.15 C0.72 6.76 0.86 7.37 1 8 C1.66 8.33 2.32 8.66 3 9 C3 9.66 3 10.32 3 11 C0.53 10.5 0.53 10.5 -2 10 C-2 7.69 -2 5.38 -2 3 C-2.99 3 -3.98 3 -5 3 C-5 3.99 -5 4.98 -5 6 C-5.99 5.67 -6.98 5.34 -8 5 C-7.67 4.34 -7.34 3.68 -7 3 C-8.48 3.14 -9.96 3.29 -11.44 3.44 C-12.67 3.56 -12.67 3.56 -13.93 3.68 C-15.99 3.79 -15.99 3.79 -17 5 C-18.67 5.04 -20.33 5.04 -22 5 C-22 4.34 -22 3.68 -22 3 C-22.99 3 -23.98 3 -25 3 C-24.01 4.65 -23.02 6.3 -22 8 C-24.17 7.49 -26 7 -28 6 C-28.62 3.94 -28.62 3.94 -29 2 C-19.36 -0.53 -9.89 -0.18 0 0 Z M-9 6 C-8.67 6.66 -8.34 7.32 -8 8 C-8.66 7.67 -9.32 7.34 -10 7 C-9.67 6.67 -9.34 6.34 -9 6 Z " fill="#001414" transform="translate(220,332)"/>
<path d="M0 0 C2 2 2 2 2.38 4.38 C1.88 7.83 0.69 8.84 -2 11 C-5.08 12.99 -7.37 13.2 -11 13 C-11.35 9.93 -11.51 7.06 -11 4 C-7.59 0.75 -4.73 -0.79 0 0 Z " fill="#00E9D4" transform="translate(421,254)"/>
<path d="M0 0 C1.32 0.33 2.64 0.66 4 1 C4.99 5.95 5.98 10.9 7 16 C7.66 16 8.32 16 9 16 C10.71 17.96 12.38 19.96 14 22 C13.67 22.66 13.34 23.32 13 24 C12.34 23.67 11.68 23.34 11 23 C10.67 25.31 10.34 27.62 10 30 C9.34 30 8.68 30 8 30 C7.94 29.08 7.94 29.08 7.89 28.14 C7.82 27.33 7.76 26.52 7.69 25.69 C7.6 24.49 7.6 24.49 7.51 23.26 C6.9 20.57 6.02 19.81 4 18 C-0.03 12.17 -0.51 6.95 0 0 Z " fill="#002A2A" transform="translate(134,324)"/>
<path d="M0 0 C0.99 0.33 1.98 0.66 3 1 C2.67 1.33 2.34 1.66 2 2 C3.32 2.33 4.64 2.66 6 3 C5.67 3.66 5.34 4.32 5 5 C2.68 5.41 0.34 5.74 -2 6 C-2.8 9.29 -3.1 10.71 -2 14 C0.98 15.16 0.98 15.16 4 16 C5 17 5 17 5.06 19.56 C5.04 20.37 5.02 21.17 5 22 C2.03 22.33 -0.94 22.66 -4 23 C-3.81 21.87 -3.63 20.73 -3.44 19.56 C-3.29 18.39 -3.15 17.21 -3 16 C-4.04 14.73 -4.04 14.73 -6.38 14.94 C-7.24 14.96 -8.11 14.98 -9 15 C-9.99 15 -10.98 15 -12 15 C-11.34 14.34 -10.68 13.68 -10 13 C-10.66 12.34 -11.32 11.68 -12 11 C-6.25 8 -6.25 8 -4 8 C-4.33 6.68 -4.66 5.36 -5 4 C-4.01 4 -3.02 4 -2 4 C-1.34 2.68 -0.68 1.36 0 0 Z " fill="#002A2B" transform="translate(425,240)"/>
<path d="M0 0 C1.98 0.99 1.98 0.99 4 2 C4.33 13.88 4.66 25.76 5 38 C5.66 38.33 6.32 38.66 7 39 C7.14 46.07 6.75 52.97 6 60 C5.34 59.67 4.68 59.34 4 59 C4 55.37 4 51.74 4 48 C4.66 48 5.32 48 6 48 C5.74 44.57 5.74 44.57 5 41 C4.01 40.34 3.02 39.68 2 39 C1.67 36.27 1.54 33.77 1.52 31.04 C1.51 30.25 1.49 29.46 1.48 28.64 C1.43 26.12 1.4 23.59 1.38 21.06 C1.34 18.54 1.3 16.02 1.25 13.49 C1.23 11.92 1.2 10.35 1.19 8.78 C1.14 5.6 1.01 3.04 0 0 Z " fill="#00B3AF" transform="translate(251,479)"/>
<path d="M0 0 C0.33 0.66 0.66 1.32 1 2 C1.96 1.98 1.96 1.98 2.93 1.96 C4.17 1.95 4.17 1.95 5.44 1.94 C6.26 1.93 7.08 1.91 7.93 1.9 C10 2 10 2 11 3 C11.04 4.67 11.04 6.33 11 8 C13.97 8 16.94 8 20 8 C20.66 9.65 21.32 11.3 22 13 C17.71 13 13.42 13 9 13 C8.67 12.01 8.34 11.02 8 10 C5.98 9.27 5.98 9.27 4 9 C4.62 8.73 5.24 8.46 5.88 8.19 C8.3 7.04 8.3 7.04 10 4 C9.01 4 8.02 4 7 4 C7 4.66 7 5.32 7 6 C5.68 6 4.36 6 3 6 C3 5.34 3 4.68 3 4 C1.35 4 -0.3 4 -2 4 C-1.34 2.68 -0.68 1.36 0 0 Z " fill="#006F6F" transform="translate(208,207)"/>
<path d="M0 0 C0.66 0 1.32 0 2 0 C3.19 2.38 3.28 4.23 3.5 6.88 C3.76 10.02 4.15 12.95 5 16 C5.66 16 6.32 16 7 16 C7.33 16.99 7.66 17.98 8 19 C7.01 19 6.02 19 5 19 C4.67 19.99 4.34 20.98 4 22 C4.99 22.33 5.98 22.66 7 23 C1.38 28 1.38 28 -2 28 C-1 25.01 -0.25 24.05 2 22 C1.34 21.67 0.68 21.34 0 21 C0.66 20.01 1.32 19.02 2 18 C1.34 18 0.68 18 0 18 C-3 12.25 -3 12.25 -3 10 C-2.01 9.67 -1.02 9.34 0 9 C0 6.03 0 3.06 0 0 Z " fill="#001011" transform="translate(404,293)"/>
<path d="M0 0 C1.35 2.71 1.07 5.01 1 8 C0.34 8 -0.32 8 -1 8 C-1 7.34 -1 6.68 -1 6 C-4.3 6 -7.6 6 -11 6 C-11 6.66 -11 7.32 -11 8 C-9.02 8 -7.04 8 -5 8 C-5 8.66 -5 9.32 -5 10 C-7.65 11.46 -8.89 12 -12 12 C-12 12.66 -12 13.32 -12 14 C-10.68 14.33 -9.36 14.66 -8 15 C-9 16 -9 16 -12.56 16.06 C-13.7 16.04 -14.83 16.02 -16 16 C-16 12.04 -16 8.08 -16 4 C-11.38 4 -6.76 4 -2 4 C-1.34 2.68 -0.68 1.36 0 0 Z " fill="#002727" transform="translate(318,229)"/>
<path d="M0 0 C3.63 0 7.26 0 11 0 C10.25 9.75 10.25 9.75 8 12 C5.84 12.2 5.84 12.2 3.38 12.12 C2.56 12.11 1.74 12.09 0.9 12.07 C0.27 12.05 -0.35 12.02 -1 12 C-1.33 10.35 -1.66 8.7 -2 7 C0.31 7 2.62 7 5 7 C3.61 3.91 2.51 2.51 0 0 Z " fill="#00C2BA" transform="translate(472,298)"/>
<path d="M0 0 C0.66 0.33 1.32 0.66 2 1 C0.02 1.99 0.02 1.99 -2 3 C-1.34 4.32 -0.68 5.64 0 7 C1.98 7 3.96 7 6 7 C6 7.99 6 8.98 6 10 C4.35 10 2.7 10 1 10 C1 10.66 1 11.32 1 12 C0.01 11.67 -0.98 11.34 -2 11 C-1.67 10.01 -1.34 9.02 -1 8 C-1.66 8 -2.32 8 -3 8 C-3.33 8.99 -3.66 9.98 -4 11 C-8.06 13.09 -12.58 13.95 -17 15 C-15.85 11.55 -14.92 10.91 -12.06 8.81 C-11.35 8.28 -10.64 7.75 -9.91 7.21 C-8 6 -8 6 -6 6 C-6 5.34 -6 4.68 -6 4 C-4.04 2.61 -2.04 1.27 0 0 Z " fill="#002A2B" transform="translate(247,315)"/>
<path d="M0 0 C-0.16 0.5 -0.33 0.99 -0.5 1.5 C-1.31 5.53 -1.87 10.26 0 14 C3.96 14 7.92 14 12 14 C11.67 15.32 11.34 16.64 11 18 C6.38 18 1.76 18 -3 18 C-4.93 14.14 -5.3 12.58 -5.31 8.44 C-5.33 7.49 -5.35 6.54 -5.36 5.56 C-5 3 -5 3 -3.61 1.16 C-2 0 -2 0 0 0 Z " fill="#002E2E" transform="translate(179,348)"/>
<path d="M0 0 C0.66 0.33 1.32 0.66 2 1 C1.67 1.99 1.34 2.98 1 4 C2.32 4.66 3.64 5.32 5 6 C4.67 7.65 4.34 9.3 4 11 C3.37 11.13 2.75 11.27 2.1 11.4 C0.88 11.67 0.88 11.67 -0.38 11.94 C-1.19 12.11 -2 12.29 -2.84 12.46 C-5.03 12.92 -5.03 12.92 -7 14 C-7.2 10.28 -7.15 9.23 -5 6 C-5.99 5.67 -6.98 5.34 -8 5 C-6.68 4.01 -5.36 3.02 -4 2 C-4 2.99 -4 3.98 -4 5 C-3.34 5 -2.68 5 -2 5 C-1.34 3.35 -0.68 1.7 0 0 Z " fill="#002121" transform="translate(260,205)"/>
<path d="M0 0 C-0.29 3.54 -0.75 4.76 -3.38 7.25 C-7.67 10.11 -10.94 10.1 -16 10 C-15.34 9.01 -14.68 8.02 -14 7 C-16.47 6.01 -16.47 6.01 -19 5 C-19 4.67 -19 4.34 -19 4 C-17.88 3.94 -17.88 3.94 -16.73 3.89 C-15.75 3.82 -14.76 3.76 -13.75 3.69 C-12.78 3.63 -11.8 3.57 -10.8 3.51 C-6.18 2.67 -4.96 0 0 0 Z " fill="#00D0C3" transform="translate(256,203)"/>
<path d="M0 0 C0.99 0.33 1.98 0.66 3 1 C2.01 1.33 1.02 1.66 0 2 C-0.33 3.65 -0.66 5.3 -1 7 C0.65 6.34 2.3 5.68 4 5 C4 5.99 4 6.98 4 8 C3.01 8.5 3.01 8.5 2 9 C2.37 9.93 2.74 10.86 3.12 11.81 C3.56 13.39 3.56 13.39 4 15 C3.01 16.49 3.01 16.49 2 18 C0.68 18 -0.64 18 -2 18 C-2 18.66 -2 19.32 -2 20 C-3.65 19.67 -5.3 19.34 -7 19 C-7 17.35 -7 15.7 -7 14 C-6.34 14 -5.68 14 -5 14 C-5 14.99 -5 15.98 -5 17 C-4.01 17 -3.02 17 -2 17 C-2.33 16.01 -2.66 15.02 -3 14 C-1.35 14.33 0.3 14.66 2 15 C2 14.34 2 13.68 2 13 C1.34 13 0.68 13 0 13 C0 12.01 0 11.02 0 10 C-0.99 10 -1.98 10 -3 10 C-4 7 -5 4 -6 1 C-4.79 1.03 -4.79 1.03 -3.56 1.06 C-1.07 1.3 -1.07 1.3 0 0 Z " fill="#001213" transform="translate(329,254)"/>
<path d="M0 0 C1.41 2.64 2.37 5.07 3 8 C5.97 5.52 5.97 5.52 9 3 C9.48 4.42 9.96 5.83 10.44 7.25 C10.84 8.43 10.84 8.43 11.25 9.64 C11.92 11.75 12.49 13.85 13 16 C7.75 16.43 7.75 16.43 5 16 C3.12 13.88 3.12 13.88 2 11 C1.61 10.01 1.22 9.02 0.81 8 C0.04 5.16 -0.17 2.92 0 0 Z " fill="#00E1CF" transform="translate(507,296)"/>
<path d="M0 0 C4.2 0.49 5.88 1.46 8.5 4.75 C9.65 6.18 10.82 7.59 12 9 C12.72 9.89 13.43 10.77 14.17 11.69 C17.96 14.79 20.98 14.94 25.75 15.25 C33.93 15.93 33.93 15.93 35 17 C35.07 19.53 35.09 22.03 35.06 24.56 C35.06 25.27 35.05 25.98 35.05 26.72 C35.04 28.48 35.02 30.24 35 32 C34.67 32 34.34 32 34 32 C33.67 27.38 33.34 22.76 33 18 C31.84 17.88 30.68 17.76 29.49 17.63 C27.95 17.46 26.41 17.29 24.88 17.12 C23.73 17.01 23.73 17.01 22.57 16.89 C11.66 15.66 11.66 15.66 8 12 C7.69 10.87 7.38 9.73 7.06 8.56 C5.63 3.75 4.08 2.72 0 0 Z " fill="#006B6C" transform="translate(194,383)"/>
<path d="M0 0 C0.66 0.33 1.32 0.66 2 1 C3.52 1.15 5.04 1.25 6.57 1.32 C7.91 1.38 7.91 1.38 9.29 1.44 C10.22 1.48 11.16 1.52 12.12 1.56 C13.54 1.63 13.54 1.63 14.99 1.69 C17.33 1.8 19.66 1.9 22 2 C22 2.33 22 2.66 22 3 C15.4 3.33 8.8 3.66 2 4 C8.6 4.33 15.2 4.66 22 5 C18.95 8.05 15.29 7.39 11.19 7.5 C3.87 7.64 3.87 7.64 -3 10 C-2.34 9.01 -1.68 8.02 -1 7 C-1.66 6.67 -2.32 6.34 -3 6 C-2.67 4.68 -2.34 3.36 -2 2 C-1.34 2 -0.68 2 0 2 C0 1.34 0 0.68 0 0 Z " fill="#004444" transform="translate(411,309)"/>
<path d="M0 0 C0.66 0.33 1.32 0.66 2 1 C1.99 2.11 1.98 3.22 1.96 4.36 C1.96 5.82 1.95 7.29 1.94 8.75 C1.93 9.48 1.92 10.21 1.91 10.96 C1.9 14.49 2.05 17.61 3 21 C2.34 21 1.68 21 1 21 C0.34 19.68 -0.32 18.36 -1 17 C-1.99 17.99 -2.98 18.98 -4 20 C-4 19.01 -4 18.02 -4 17 C-4.99 16.67 -5.98 16.34 -7 16 C-7 14.02 -7 12.04 -7 10 C-3.99 9.07 -3.13 8.96 0 10 C0 6.7 0 3.4 0 0 Z " fill="#001718" transform="translate(471,487)"/>
<path d="M0 0 C1.28 0.25 2.56 0.5 3.88 0.75 C4.95 0.96 4.95 0.96 6.05 1.17 C8 2 8 2 9.22 3.66 C10.24 6.71 10.43 9.54 10.62 12.75 C10.7 13.92 10.77 15.09 10.85 16.3 C10.9 17.19 10.95 18.08 11 19 C11.66 19 12.32 19 13 19 C14.26 21.91 15 23.8 15 27 C15.66 27 16.32 27 17 27 C16.67 27.66 16.34 28.32 16 29 C12.75 27.38 12.3 24.25 11 21 C10.01 21 9.02 21 8 21 C7.67 19.02 7.34 17.04 7 15 C7.33 15 7.66 15 8 15 C8 12.69 8 10.38 8 8 C5.03 7.5 5.03 7.5 2 7 C2.99 6.01 3.98 5.02 5 4 C3.35 3.67 1.7 3.34 0 3 C0 2.01 0 1.02 0 0 Z " fill="#002121" transform="translate(115,320)"/>
<path d="M0 0 C0 0.66 0 1.32 0 2 C-2.65 3.46 -3.89 4 -7 4 C-7 5.98 -7 7.96 -7 10 C-12.54 10.43 -16.9 8.91 -22 7 C-18.93 5.47 -16.3 6.45 -13 7 C-13 6.01 -13 5.02 -13 4 C-9.66 -1.09 -5.5 -0.42 0 0 Z " fill="#002A2A" transform="translate(497,319)"/>
<path d="M0 0 C2.54 0.39 3.73 0.7 5.48 2.63 C5.9 3.27 6.32 3.91 6.75 4.56 C7.18 5.2 7.61 5.84 8.05 6.5 C8.36 7 8.68 7.49 9 8 C7.35 8 5.7 8 4 8 C3.67 6.35 3.34 4.7 3 3 C2.01 2.67 1.02 2.34 0 2 C-0.33 2.99 -0.66 3.98 -1 5 C-3.41 6.2 -4.95 6.1 -7.62 6.06 C-8.85 6.05 -8.85 6.05 -10.1 6.04 C-11.04 6.02 -11.04 6.02 -12 6 C-12.08 6.78 -12.17 7.57 -12.25 8.38 C-12.62 9.67 -12.62 9.67 -13 11 C-14.32 11.68 -15.66 12.35 -17 13 C-18.28 15.54 -18.28 15.54 -19 18 C-19.66 18 -20.32 18 -21 18 C-19.66 12.49 -16.97 8.91 -13 5 C-10.13 3.57 -7.27 3.67 -4.09 3.48 C-1.61 3.16 -1.61 3.16 0 0 Z " fill="#006666" transform="translate(457,287)"/>
<path d="M0 0 C0.66 0 1.32 0 2 0 C2.02 1.09 2.04 2.19 2.06 3.31 C2.56 6.96 2.56 6.96 4.62 8.13 C6.78 9.06 6.78 9.06 10 10 C10 10.66 10 11.32 10 12 C6.04 12 2.08 12 -2 12 C-2 11.34 -2 10.68 -2 10 C-1.34 10 -0.68 10 0 10 C0 9.01 0 8.02 0 7 C-0.99 7 -1.98 7 -3 7 C-3 7.66 -3 8.32 -3 9 C-6 11 -6 11 -9 11 C-8.67 10.01 -8.34 9.02 -8 8 C-7.03 7.55 -6.06 7.09 -5.06 6.62 C-1.82 5.28 -1.82 5.28 -0.62 2.31 C-0.42 1.55 -0.21 0.79 0 0 Z " fill="#000E0F" transform="translate(281,282)"/>
<path d="M0 0 C0.85 0.33 1.7 0.65 2.58 0.99 C6.16 2.05 8.99 2.23 12.71 2.2 C13.95 2.19 15.2 2.18 16.48 2.18 C17.77 2.16 19.05 2.14 20.38 2.12 C22.34 2.11 22.34 2.11 24.34 2.1 C27.56 2.07 30.78 2.04 34 2 C33.67 2.66 33.34 3.32 33 4 C32.4 4.03 31.8 4.05 31.18 4.08 C28.43 4.19 25.69 4.32 22.94 4.44 C21.99 4.48 21.05 4.52 20.08 4.56 C16 4.74 12.03 4.94 8 5.66 C5 6 5 6 2 4 C2 3.34 2 2.68 2 2 C1.34 2 0.68 2 0 2 C0 1.34 0 0.68 0 0 Z " fill="#000E10" transform="translate(398,408)"/>
<path d="M0 0 C0.66 0 1.32 0 2 0 C1.34 1.67 0.67 3.34 0 5 C-0.23 5.61 -0.46 6.22 -0.7 6.86 C-1.38 8.61 -2.19 10.31 -3 12 C-5.94 12.98 -7.83 13.12 -10.89 13.1 C-11.82 13.09 -12.76 13.09 -13.73 13.09 C-14.7 13.08 -15.68 13.07 -16.69 13.06 C-18.17 13.06 -18.17 13.06 -19.68 13.05 C-22.12 13.04 -24.56 13.02 -27 13 C-26.67 12.34 -26.34 11.68 -26 11 C-16.1 10.5 -16.1 10.5 -6 10 C-5.01 8.02 -4.02 6.04 -3 4 C-2.34 4 -1.68 4 -1 4 C-0.67 2.68 -0.34 1.36 0 0 Z " fill="#000808" transform="translate(439,301)"/>
<path d="M0 0 C0.33 0 0.66 0 1 0 C1.33 2.64 1.66 5.28 2 8 C2.33 6.35 2.66 4.7 3 3 C3.66 3 4.32 3 5 3 C5.12 5.88 5.12 5.88 5 9 C4.34 9.66 3.68 10.32 3 11 C2.51 12.98 2.03 14.97 1.56 16.96 C0.81 19.68 -0.3 21.76 -2 24 C-2.99 24.33 -3.98 24.66 -5 25 C-4.67 24.01 -4.34 23.02 -4 22 C-3.34 22 -2.68 22 -2 22 C-1.94 20.83 -1.88 19.66 -1.82 18.46 C-1.73 16.91 -1.65 15.36 -1.56 13.81 C-1.5 12.66 -1.5 12.66 -1.44 11.48 C-1.22 7.57 -0.91 3.83 0 0 Z " fill="#002E2E" transform="translate(347,466)"/>
<path d="M0 0 C1.32 0.66 2.64 1.32 4 2 C4 3.65 4 5.3 4 7 C4.99 7 5.98 7 7 7 C7 7.99 7 8.98 7 10 C7.66 10 8.32 10 9 10 C9 10.66 9 11.32 9 12 C7.68 12 6.36 12 5 12 C5 12.66 5 13.32 5 14 C4.01 14 3.02 14 2 14 C2 13.01 2 12.02 2 11 C1.34 11 0.68 11 0 11 C0.57 14.93 0.57 14.93 3 18 C1.35 17.67 -0.3 17.34 -2 17 C-2 15.02 -2 13.04 -2 11 C-0.68 10.67 0.64 10.34 2 10 C1.86 8.72 1.71 7.44 1.56 6.12 C1.48 5.41 1.4 4.69 1.32 3.95 C1.09 1.93 1.09 1.93 0 0 Z " fill="#001F20" transform="translate(322,257)"/>
<path d="M0 0 C4.11 0.28 3.98 0.6 6.62 3.25 C10.38 3.66 12.68 3.88 15.88 1.75 C16.45 1.25 17.03 0.76 17.62 0.25 C18.62 0.25 19.61 0.25 20.62 0.25 C20.62 2.23 20.62 4.21 20.62 6.25 C19.63 6.25 18.64 6.25 17.62 6.25 C17.3 7.57 16.96 8.89 16.62 10.25 C16.62 8.93 16.62 7.61 16.62 6.25 C15.87 6.21 15.11 6.18 14.32 6.14 C13.33 6.07 12.34 6.01 11.31 5.94 C10.33 5.88 9.34 5.82 8.32 5.76 C5.31 5.19 4.61 4.47 2.62 2.25 C-0 2 -0 2 -2.38 2.25 C-2.7 3.24 -3.04 4.23 -3.38 5.25 C-4.04 5.25 -4.69 5.25 -5.38 5.25 C-4.26 0.32 -4.26 0.32 0 0 Z " fill="#005151" transform="translate(293.375,266.75)"/>
<path d="M0 0 C0.66 0 1.32 0 2 0 C2.13 0.81 2.27 1.62 2.4 2.45 C2.58 3.52 2.76 4.59 2.94 5.69 C3.11 6.74 3.29 7.8 3.46 8.89 C3.8 10.86 4.19 12.83 4.65 14.78 C5 17 5 17 3.69 18.81 C2 20 2 20 0 20 C0 20.66 0 21.32 0 22 C-0.66 22 -1.32 22 -2 22 C-1.49 19.83 -1 18 0 16 C0.66 16 1.32 16 2 16 C1.48 14.85 0.97 13.69 0.44 12.5 C-1.31 7.93 -0.93 4.75 0 0 Z " fill="#000F10" transform="translate(322,500)"/>
<path d="M0 0 C1.5 1.38 1.5 1.38 3 3 C3 3.66 3 4.32 3 5 C6.3 4.67 9.6 4.34 13 4 C13 5.98 13 7.96 13 10 C11.35 9.67 9.7 9.34 8 9 C8.99 7.68 9.98 6.36 11 5 C9.88 5.47 9.88 5.47 8.73 5.95 C7.75 6.33 6.76 6.72 5.75 7.12 C4.78 7.52 3.8 7.91 2.8 8.32 C0 9 0 9 -2.36 8.12 C-2.9 7.75 -3.44 7.38 -4 7 C-4 6.34 -4 5.68 -4 5 C-3.34 5 -2.68 5 -2 5 C-1.34 3.35 -0.68 1.7 0 0 Z " fill="#001F1F" transform="translate(454,247)"/>
<path d="M0 0 C0.82 0.21 1.65 0.41 2.5 0.62 C3.49 0.3 4.48 -0.04 5.5 -0.38 C5.19 0.16 4.88 0.7 4.56 1.25 C3.32 4.02 2.91 6.63 2.5 9.62 C1.84 8.96 1.18 8.31 0.5 7.62 C-0.49 9.11 -0.49 9.11 -1.5 10.62 C-2.16 10.62 -2.82 10.62 -3.5 10.62 C-2.9 7.27 -1.65 5.25 0.5 2.62 C-0.49 2.62 -1.48 2.62 -2.5 2.62 C-3.71 4.96 -4.67 7.12 -5.5 9.62 C-6.16 9.62 -6.82 9.62 -7.5 9.62 C-5 -0.75 -5 -0.75 0 0 Z " fill="#002323" transform="translate(237.5,377.375)"/>
<path d="M0 0 C1.75 0.06 1.75 0.06 4 1 C5.6 3.24 6.75 5.54 8 8 C7.34 8 6.68 8 6 8 C5.34 9.65 4.68 11.3 4 13 C3.34 13 2.68 13 2 13 C2 11.35 2 9.7 2 8 C1.34 7.67 0.68 7.34 0 7 C-0.33 7.99 -0.66 8.98 -1 10 C-1.66 10 -2.32 10 -3 10 C-2.69 9.28 -2.38 8.56 -2.06 7.81 C-1.07 5.2 -0.47 2.75 0 0 Z " fill="#002525" transform="translate(265,576)"/>
<path d="M0 0 C1.65 1.32 3.3 2.64 5 4 C4.67 4.99 4.34 5.98 4 7 C3.34 6.67 2.68 6.34 2 6 C0.43 5.87 -1.14 5.8 -2.72 5.75 C-3.65 5.72 -4.58 5.69 -5.54 5.65 C-7.51 5.59 -9.49 5.54 -11.46 5.48 C-12.39 5.45 -13.32 5.41 -14.28 5.38 C-15.14 5.35 -15.99 5.33 -16.88 5.3 C-19 5 -19 5 -21 3 C-10.61 2.5 -10.61 2.5 0 2 C0 1.34 0 0.68 0 0 Z " fill="#00494A" transform="translate(343,426)"/>
<path d="M0 0 C0.99 0.5 0.99 0.5 2 1 C2 1.66 2 2.32 2 3 C2.97 3.31 3.94 3.62 4.94 3.94 C8 5 8 5 9 6 C9.04 7.67 9.04 9.33 9 11 C4.55 11.5 4.55 11.5 0 12 C0.19 10.95 0.37 9.9 0.56 8.81 C0.95 5.43 0.88 3.24 0 0 Z " fill="#006969" transform="translate(421,251)"/>
<path d="M0 0 C1.65 0.33 3.3 0.66 5 1 C5 1.99 5 2.98 5 4 C5.93 4.1 6.86 4.21 7.81 4.31 C11.15 5.03 11.83 5.57 14 8 C12.25 7.89 10.5 7.76 8.75 7.62 C7.78 7.56 6.8 7.49 5.8 7.41 C3.1 7.02 1.33 6.36 -1 5 C-0.67 3.35 -0.34 1.7 0 0 Z " fill="#001515" transform="translate(289,227)"/>
<path d="M0 0 C4.62 0 9.24 0 14 0 C16 3.99 16.2 5.7 16 10 C16.66 10 17.32 10 18 10 C18.33 13.3 18.66 16.6 19 20 C14.29 15.29 14.51 8.29 14 2 C9.38 2 4.76 2 0 2 C0 1.34 0 0.68 0 0 Z " fill="#00BAB7" transform="translate(513,330)"/>
<path d="M0 0 C0.99 0 1.98 0 3 0 C2 2 1 4 0 6 C1.65 6 3.3 6 5 6 C5 6.66 5 7.32 5 8 C6.32 8 7.64 8 9 8 C9 7.34 9 6.68 9 6 C9.99 6 10.98 6 12 6 C11.34 7.32 10.68 8.64 10 10 C8.4 9.86 6.79 9.71 5.19 9.56 C4.29 9.48 3.4 9.4 2.48 9.32 C0 9 0 9 -3 8 C-2.45 4.63 -1.95 2.92 0 0 Z " fill="#000E0E" transform="translate(206,205)"/>
<path d="M0 0 C4.29 0 8.58 0 13 0 C13 0.33 13 0.66 13 1 C9.04 1 5.08 1 1 1 C1.33 1.66 1.66 2.32 2 3 C2.66 3 3.32 3 4 3 C3.41 9.15 3.41 9.15 3 11 C2.01 11.5 2.01 11.5 1 12 C1 9.69 1 7.38 1 5 C0.34 5 -0.32 5 -1 5 C-1 8.3 -1 11.6 -1 15 C-1.66 14.67 -2.32 14.34 -3 14 C-3.29 8.33 -3.01 5.01 0 0 Z " fill="#004546" transform="translate(323,495)"/>
<path d="M0 0 C1.32 1.32 2.64 2.64 4 4 C3.01 4.5 3.01 4.5 2 5 C1.35 7.02 1.35 7.02 1 9 C0.34 9 -0.32 9 -1 9 C-1.33 10.65 -1.66 12.3 -2 14 C-2.33 12.68 -2.66 11.36 -3 10 C-5.97 10 -8.94 10 -12 10 C-12.33 9.34 -12.66 8.68 -13 8 C-7.56 7.5 -7.56 7.5 -2 7 C-1.34 4.69 -0.68 2.38 0 0 Z " fill="#000A0C" transform="translate(299,588)"/>
<path d="M0 0 C1.21 0.03 1.21 0.03 2.44 0.06 C2.44 1.05 2.44 2.04 2.44 3.06 C1.82 3.14 1.2 3.23 0.56 3.31 C-1.75 3.88 -1.75 3.88 -2.81 6.12 C-3.06 6.76 -3.31 7.4 -3.56 8.06 C-6.53 7.57 -6.53 7.57 -9.56 7.06 C-9.38 5.19 -9.38 5.19 -8.56 3.06 C-6.06 1.88 -6.06 1.88 -3.56 1.06 C-2.56 0.06 -2.56 0.06 0 0 Z " fill="#00CCC0" transform="translate(303.5625,279.9375)"/>
<path d="M0 0 C0.35 0.64 0.7 1.28 1.06 1.94 C3.77 4.82 6.16 4.71 10 5 C10 8.63 10 12.26 10 16 C10.99 16 11.98 16 13 16 C13.33 17.65 13.66 19.3 14 21 C12.68 20.01 11.36 19.02 10 18 C10.31 18.62 10.62 19.24 10.94 19.88 C11.62 21.25 12.31 22.62 13 24 C9.12 22.12 9.12 22.12 8 21 C8.09 18.46 8.24 15.96 8.44 13.44 C8.49 12.73 8.54 12.02 8.6 11.28 C8.73 9.52 8.86 7.76 9 6 C7.33 6.06 7.33 6.06 5.62 6.12 C2 6 2 6 0 4 C0 2.68 0 1.36 0 0 Z " fill="#005657" transform="translate(282,562)"/>
<path d="M0 0 C0.33 0 0.66 0 1 0 C1.17 2.92 1.01 4.97 0.03 7.75 C-1.07 11.21 -1.4 14.26 -1.62 17.88 C-1.7 19.03 -1.77 20.18 -1.85 21.37 C-1.9 22.24 -1.95 23.1 -2 24 C-4.62 21.38 -4.29 19.45 -4.32 15.88 C-4.32 15.09 -4.32 14.31 -4.31 13.5 C-4.33 12.71 -4.34 11.93 -4.36 11.12 C-4.36 8.84 -4.36 8.84 -4 5 C-3.01 4.34 -2.02 3.68 -1 3 C-0.67 2.01 -0.34 1.02 0 0 Z " fill="#00B2AE" transform="translate(385,363)"/>
<path d="M0 0 C0.66 0 1.32 0 2 0 C2.27 1.26 2.54 2.52 2.81 3.81 C3.6 6.99 4.25 9 7 11 C6.67 11.99 6.34 12.98 6 14 C4 12 2 10 0 8 C0 9.65 0 11.3 0 13 C-0.66 13 -1.32 13 -2 13 C-2.05 11.58 -2.09 10.17 -2.12 8.75 C-2.15 7.96 -2.17 7.17 -2.2 6.36 C-1.98 3.79 -1.29 2.21 0 0 Z " fill="#000A0A" transform="translate(486,296)"/>
<path d="M0 0 C3.83 1.45 5.12 3.43 7 7 C4.25 7.75 4.25 7.75 1 8 C-1.38 6.06 -1.38 6.06 -3 4 C-3 4.66 -3 5.32 -3 6 C-3.66 6 -4.32 6 -5 6 C-5.33 4.35 -5.66 2.7 -6 1 C-4.35 1 -2.7 1 -1 1 C-1 1.66 -1 2.32 -1 3 C-0.34 3 0.32 3 1 3 C0.67 2.01 0.34 1.02 0 0 Z " fill="#002A2A" transform="translate(480,286)"/>
<path d="M0 0 C3.3 0 6.6 0 10 0 C10.33 1.65 10.66 3.3 11 5 C3.71 8.43 3.71 8.43 -1 8 C-1 7.34 -1 6.68 -1 6 C1.31 5.34 3.62 4.68 6 4 C6 3.34 6 2.68 6 2 C4.02 2 2.04 2 0 2 C0 1.34 0 0.68 0 0 Z " fill="#000E0E" transform="translate(307,235)"/>
<path d="M0 0 C6.15 -0.1 6.15 -0.1 8 0 C9 1 9 1 9.12 4.94 C9.08 9.99 8.59 14.98 8 20 C7.34 20 6.68 20 6 20 C5.82 7.33 5.82 7.33 7 2 C4.69 1.67 2.38 1.34 0 1 C0 0.67 0 0.34 0 0 Z " fill="#006D6D" transform="translate(453,410)"/>
<path d="M0 0 C0.99 0.33 1.98 0.66 3 1 C2.39 1.67 2.39 1.67 1.76 2.36 C-1.26 5.74 -3.66 8.58 -5 13 C-6.32 13 -7.64 13 -9 13 C-8.67 12.01 -8.34 11.02 -8 10 C-7.34 10 -6.68 10 -6 10 C-6.06 9.24 -6.12 8.47 -6.19 7.69 C-6 5 -6 5 -4.69 3.19 C-3 2 -3 2 0 2 C0 1.34 0 0.68 0 0 Z M-10 13 C-10 13.99 -10 14.98 -10 16 C-10.99 15.67 -11.98 15.34 -13 15 C-12.01 14.34 -11.02 13.68 -10 13 Z " fill="#000D0E" transform="translate(413,252)"/>
<path d="M0 0 C1.88 0.25 1.88 0.25 4 1 C5.25 3.06 5.25 3.06 6 5 C6.66 5 7.32 5 8 5 C8 5.66 8 6.32 8 7 C5.12 7.12 5.12 7.12 2 7 C1.34 6.34 0.68 5.68 0 5 C-1.99 4.6 -3.99 4.26 -6 4 C-6.33 3.01 -6.66 2.02 -7 1 C-4.36 1.66 -1.72 2.32 1 3 C0.67 2.01 0.34 1.02 0 0 Z " fill="#001010" transform="translate(249,246)"/>
<path d="M0 0 C3.16 1.37 3.99 1.99 6 5 C7.29 10.29 7.1 15.6 7 21 C6.01 21 5.02 21 4 21 C4.07 19.46 4.07 19.46 4.14 17.89 C4.18 16.53 4.21 15.17 4.25 13.81 C4.28 13.14 4.32 12.47 4.35 11.77 C4.45 6.82 3.39 4.54 0 1 C0 0.67 0 0.34 0 0 Z " fill="#000B0B" transform="translate(474,508)"/>
<path d="M0 0 C0 0.99 0 1.98 0 3 C-10.89 3.5 -10.89 3.5 -22 4 C-22 3.01 -22 2.02 -22 1 C-19.08 0.83 -16.17 0.67 -13.25 0.5 C-12.01 0.43 -12.01 0.43 -10.75 0.36 C-9.55 0.29 -9.55 0.29 -8.33 0.22 C-7.59 0.18 -6.86 0.13 -6.11 0.09 C-4.07 0 -2.04 0 0 0 Z " fill="#000A0B" transform="translate(432,285)"/>
<path d="M0 0 C-0.64 0.29 -1.28 0.58 -1.94 0.88 C-4.15 1.83 -4.15 1.83 -5 4 C-4.34 4.33 -3.68 4.66 -3 5 C-3.33 6.98 -3.66 8.96 -4 11 C-4.66 11 -5.32 11 -6 11 C-6 11.66 -6 12.32 -6 13 C-6.66 12.67 -7.32 12.34 -8 12 C-7.77 11.24 -7.55 10.47 -7.31 9.69 C-7.21 8.8 -7.11 7.91 -7 7 C-8.4 5.35 -8.4 5.35 -10 4 C-10 3.01 -10 2.02 -10 1 C-3.71 -1.43 -3.71 -1.43 0 0 Z " fill="#002A2A" transform="translate(293,548)"/>
<path d="M0 0 C1.48 1.11 1.48 1.11 3 3 C3.34 5.89 3.34 5.89 3.38 9.25 C3.69 15.48 4.84 18.42 9 23 C3.46 22.52 3.46 22.52 1.62 20.44 C0.22 14.95 0.9 9.48 2 4 C1.34 4 0.68 4 0 4 C0 2.68 0 1.36 0 0 Z " fill="#006161" transform="translate(148,348)"/>
<path d="M0 0 C0.88 -0.03 1.76 -0.05 2.66 -0.08 C3.41 0.03 4.16 0.14 4.94 0.25 C5.6 1.24 6.26 2.23 6.94 3.25 C0.01 2.75 0.01 2.75 -7.06 2.25 C-7.06 4.89 -7.06 7.53 -7.06 10.25 C-11.52 9.26 -11.52 9.26 -16.06 8.25 C-16.06 7.59 -16.06 6.93 -16.06 6.25 C-13.42 6.58 -10.78 6.91 -8.06 7.25 C-8.06 5.27 -8.06 3.29 -8.06 1.25 C-5.14 0.28 -3.05 0.05 0 0 Z " fill="#00B1AF" transform="translate(498.0625,321.75)"/>
<path d="M0 0 C0.33 0.66 0.66 1.32 1 2 C1.99 2.33 2.98 2.66 4 3 C3.01 3.66 2.02 4.32 1 5 C0.21 6.95 0.21 6.95 -0.19 9.12 C-0.46 10.4 -0.72 11.68 -1 13 C1.48 13.99 1.48 13.99 4 15 C2.68 15.33 1.36 15.66 0 16 C0 15.34 0 14.68 0 14 C-1.65 14.66 -3.3 15.32 -5 16 C-5 15.01 -5 14.02 -5 13 C-4.34 13 -3.68 13 -3 13 C-2.67 10.36 -2.34 7.72 -2 5 C-2.99 5.5 -2.99 5.5 -4 6 C-3 3.01 -2.25 2.05 0 0 Z " fill="#003636" transform="translate(450,231)"/>
<path d="M0 0 C5.73 0.75 11.34 1.84 17 3 C17 6.3 17 9.6 17 13 C18.65 13 20.3 13 22 13 C22 13.33 22 13.66 22 14 C20.02 14 18.04 14 16 14 C16 10.7 16 7.4 16 4 C10.06 3.67 4.12 3.34 -2 3 C-1.34 2.01 -0.68 1.02 0 0 Z " fill="#006B6B" transform="translate(285,232)"/>
<path d="M0 0 C0.89 0.1 1.77 0.21 2.69 0.31 C1.7 0.97 0.71 1.63 -0.31 2.31 C-0.31 2.97 -0.31 3.63 -0.31 4.31 C-4.06 6.31 -4.06 6.31 -6.31 6.31 C-6.52 7.1 -6.73 7.88 -6.94 8.69 C-8.31 11.31 -8.31 11.31 -11.44 12.62 C-12.39 12.85 -13.33 13.08 -14.31 13.31 C-5.04 0.48 -5.04 0.48 0 0 Z " fill="#004E4F" transform="translate(287.3125,276.6875)"/>
<path d="M0 0 C0 0.66 0 1.32 0 2 C-1.98 2.66 -3.96 3.32 -6 4 C-6 4.66 -6 5.32 -6 6 C-6.99 6 -7.98 6 -9 6 C-8.67 7.32 -8.34 8.64 -8 10 C-4.04 10.99 -4.04 10.99 0 12 C0 12.66 0 13.32 0 14 C-3.3 13.67 -6.6 13.34 -10 13 C-10.7 7.83 -10.7 7.83 -10 5 C-7.26 2.37 -3.89 0 0 0 Z " fill="#004444" transform="translate(250,235)"/>
<path d="M0 0 C2 2 2 2 2.12 5.62 C2.08 6.74 2.04 7.85 2 9 C1.67 9 1.34 9 1 9 C1 7.02 1 5.04 1 3 C0.34 3 -0.32 3 -1 3 C-1.99 6.96 -2.98 10.92 -4 15 C-4.33 15 -4.66 15 -5 15 C-5.12 8.38 -5.12 8.38 -4 5 C-4.97 4.71 -5.94 4.42 -6.94 4.12 C-10 3 -10 3 -11 1 C-9.01 1.55 -7.03 2.11 -5.04 2.66 C-2.81 3.2 -2.81 3.2 0 2 C0 1.34 0 0.68 0 0 Z " fill="#004B4B" transform="translate(487,293)"/>
<path d="M0 0 C0.33 2.97 0.66 5.94 1 9 C-1.38 9.19 -1.38 9.19 -4 9 C-6 6 -6 6 -5.88 3.94 C-5 2 -5 2 -3 0.75 C-1 0 -1 0 0 0 Z " fill="#000D0D" transform="translate(280,208)"/>
<path d="M0 0 C1.32 0 2.64 0 4 0 C3.67 5.94 3.34 11.88 3 18 C2.34 18 1.68 18 1 18 C1 12.72 1 7.44 1 2 C0.34 1.67 -0.32 1.34 -1 1 C-0.67 0.67 -0.34 0.34 0 0 Z " fill="#000606" transform="translate(456,412)"/>
<path d="M0 0 C2.31 0 4.62 0 7 0 C5.25 6.75 5.25 6.75 3 9 C2.01 9 1.02 9 0 9 C0 8.34 0 7.68 0 7 C0.66 6.67 1.32 6.34 2 6 C2 5.01 2 4.02 2 3 C0.68 3.33 -0.64 3.66 -2 4 C-1.34 2.68 -0.68 1.36 0 0 Z " fill="#000F10" transform="translate(434,405)"/>
<path d="M0 0 C0.66 0 1.32 0 2 0 C2.33 5.94 2.66 11.88 3 18 C2.34 18 1.68 18 1 18 C-0.32 15.36 -0.37 13.06 -0.62 10.12 C-0.72 9.08 -0.82 8.03 -0.91 6.95 C-0.99 4.34 -0.8 2.46 0 0 Z " fill="#000E0F" transform="translate(253,525)"/>
<path d="M0 0 C0.66 0 1.32 0 2 0 C3.5 3.37 4 5.2 4 9 C2.02 9 0.04 9 -2 9 C-2.12 5.62 -2.12 5.62 -2 2 C-1.34 1.34 -0.68 0.68 0 0 Z " fill="#001515" transform="translate(503,298)"/>
<path d="M0 0 C0.66 0 1.32 0 2 0 C2 0.66 2 1.32 2 2 C3.32 2.33 4.64 2.66 6 3 C6 4.32 6 5.64 6 7 C5.01 7 4.02 7 3 7 C2.67 7.66 2.34 8.32 2 9 C1.67 8.34 1.34 7.68 1 7 C-3.95 7 -8.9 7 -14 7 C-13.67 6.34 -13.34 5.68 -13 5 C-8.05 5 -3.1 5 2 5 C1.34 4.34 0.68 3.68 0 3 C0 2.01 0 1.02 0 0 Z " fill="#003B3B" transform="translate(232,194)"/>
<path d="M0 0 C2.31 0 4.62 0 7 0 C7 0.66 7 1.32 7 2 C8.32 2.33 9.64 2.66 11 3 C10.67 3.66 10.34 4.32 10 5 C5.05 4.67 0.1 4.34 -5 4 C-5 3.34 -5 2.68 -5 2 C-3.35 1.67 -1.7 1.34 0 1 C0 0.67 0 0.34 0 0 Z " fill="#000D0D" transform="translate(224,195)"/>
<path d="M0 0 C0 1.65 0 3.3 0 5 C-0.33 3.68 -0.66 2.36 -1 1 C-1.93 1.5 -2.86 1.99 -3.81 2.5 C-7 4 -7 4 -10 4 C-10 4.66 -10 5.32 -10 6 C-9.34 6 -8.68 6 -8 6 C-8 6.66 -8 7.32 -8 8 C-10.31 7.34 -12.62 6.68 -15 6 C-15 6.66 -15 7.32 -15 8 C-16.32 7.67 -17.64 7.34 -19 7 C-18.45 6.73 -17.89 6.47 -17.32 6.2 C-16.6 5.84 -15.87 5.49 -15.12 5.12 C-14.41 4.78 -13.69 4.43 -12.95 4.07 C-10.85 3.03 -10.85 3.03 -9 1 C-5.97 -0.04 -3.18 -0.09 0 0 Z " fill="#006969" transform="translate(269,227)"/>
<path d="M0 0 C1.32 0 2.64 0 4 0 C5.55 -0.06 5.55 -0.06 7.12 -0.12 C10 0 10 0 12 2 C11.62 4.62 11.62 4.62 11 7 C10.67 5.68 10.34 4.36 10 3 C8.02 3.66 6.04 4.32 4 5 C4 4.34 4 3.68 4 3 C2.68 3.33 1.36 3.66 0 4 C0 2.68 0 1.36 0 0 Z " fill="#002929" transform="translate(246,200)"/>
<path d="M0 0 C5.25 0.09 9.13 2.65 13.44 5.44 C13.44 5.77 13.44 6.1 13.44 6.44 C11.79 6.44 10.14 6.44 8.44 6.44 C8.44 5.78 8.44 5.12 8.44 4.44 C3.82 3.78 -0.8 3.12 -5.56 2.44 C-3.56 0.44 -3.56 0.44 0 0 Z " fill="#000D0D" transform="translate(300.5625,198.5625)"/>
<path d="M0 0 C4.21 4.21 4.19 6.27 4.56 12.12 C4.65 13.41 4.73 14.69 4.82 16.01 C4.88 17 4.94 17.98 5 19 C4.01 19 3.02 19 2 19 C1.34 12.73 0.68 6.46 0 0 Z " fill="#005F5F" transform="translate(479,511)"/>
<path d="M0 0 C0.99 0 1.98 0 3 0 C3 0.99 3 1.98 3 3 C2.01 3 1.02 3 0 3 C0.33 3.66 0.66 4.32 1 5 C3.39 4.42 5.67 3.78 8 3 C7.67 3.99 7.34 4.98 7 6 C6.34 6 5.68 6 5 6 C4.67 6.99 4.34 7.98 4 9 C4 8.34 4 7.68 4 7 C2.68 7.99 1.36 8.98 0 10 C-0.06 9.38 -0.12 8.76 -0.19 8.12 C-0.83 5.72 -0.83 5.72 -3.56 4.75 C-4.37 4.5 -5.17 4.25 -6 4 C-6 3.67 -6 3.34 -6 3 C-5.2 2.88 -4.39 2.75 -3.56 2.62 C-2.72 2.42 -1.87 2.21 -1 2 C-0.67 1.34 -0.34 0.68 0 0 Z " fill="#003234" transform="translate(358,437)"/>
<path d="M0 0 C3.24 0.35 4.62 0.56 6.81 3.06 C7.2 3.7 7.6 4.34 8 5 C6.87 4.81 5.73 4.63 4.56 4.44 C3.39 4.29 2.21 4.15 1 4 C0.67 4.33 0.34 4.66 0 5 C-2.53 5.07 -5.03 5.09 -7.56 5.06 C-8.27 5.06 -8.98 5.05 -9.72 5.05 C-11.48 5.04 -13.24 5.02 -15 5 C-14.67 4.34 -14.34 3.68 -14 3 C-9.71 3.33 -5.42 3.66 -1 4 C-0.67 2.68 -0.34 1.36 0 0 Z " fill="#00A9A6" transform="translate(275,388)"/>
<path d="M0 0 C0.33 0.66 0.66 1.32 1 2 C-0.64 2.4 -0.64 2.4 -2.31 2.81 C-6.38 4.03 -6.38 4.03 -9 7 C-9.72 9.61 -9.72 9.61 -10 12 C-8.02 12.5 -8.02 12.5 -6 13 C-7.65 13 -9.3 13 -11 13 C-11.35 9.93 -11.51 7.06 -11 4 C-7.51 0.67 -4.81 -0.57 0 0 Z " fill="#00C2BC" transform="translate(421,254)"/>
<path d="M0 0 C1.53 3.07 0.55 5.7 0 9 C-0.66 9 -1.32 9 -2 9 C-1.67 10.65 -1.34 12.3 -1 14 C-2.65 13.67 -4.3 13.34 -6 13 C-3.11 3.41 -3.11 3.41 0 0 Z " fill="#002627" transform="translate(310,531)"/>
<path d="M0 0 C0.66 0.33 1.32 0.66 2 1 C1.5 1.78 1.01 2.57 0.5 3.38 C-1.17 5.79 -1.17 5.79 -1 8 C-1.66 8 -2.32 8 -3 8 C-3 9.65 -3 11.3 -3 13 C-3.99 12.34 -4.98 11.68 -6 11 C-6.56 7.62 -6.56 7.62 -6 4 C-3 1.56 -3 1.56 0 0 Z " fill="#00C2B9" transform="translate(386,346)"/>
<path d="M0 0 C5.28 0 10.56 0 16 0 C16.46 3.06 16.91 6.12 17.37 9.18 C17.76 12.12 17.76 12.12 20 14 C17.52 13.5 17.52 13.5 15 13 C15 9.04 15 5.08 15 1 C10.05 1 5.1 1 0 1 C0 0.67 0 0.34 0 0 Z " fill="#006161" transform="translate(448,309)"/>
<path d="M0 0 C2.76 -0.22 4.46 -0.32 6.88 1.12 C8.55 3.92 7.75 5.94 7 9 C6.34 8.34 5.68 7.68 5 7 C5 6.01 5 5.02 5 4 C3.02 4 1.04 4 -1 4 C-0.67 2.68 -0.34 1.36 0 0 Z " fill="#000D0D" transform="translate(291,268)"/>
<path d="M0 0 C3.96 0 7.92 0 12 0 C12.33 0.99 12.66 1.98 13 3 C8.71 3 4.42 3 0 3 C0 2.01 0 1.02 0 0 Z " fill="#001818" transform="translate(217,217)"/>
<path d="M0 0 C3.6 3.49 6.83 7.11 10 11 C9.67 11.66 9.34 12.32 9 13 C8.01 12.67 7.02 12.34 6 12 C6 11.34 6 10.68 6 10 C5.34 10 4.68 10 4 10 C4 9.34 4 8.68 4 8 C3.34 7.67 2.68 7.34 2 7 C2 6.34 2 5.68 2 5 C1.34 4.67 0.68 4.34 0 4 C-0.33 4.66 -0.66 5.32 -1 6 C-0.67 4.02 -0.34 2.04 0 0 Z " fill="#004343" transform="translate(388,393)"/>
<path d="M0 0 C0.66 0.99 1.32 1.98 2 3 C1.43 2.99 0.86 2.98 0.28 2.96 C-8.8 2.7 -8.8 2.7 -17 6 C-16.06 3.43 -15.35 2.22 -13 0.75 C-8.74 -0.32 -4.35 -0.72 0 0 Z " fill="#00A2A0" transform="translate(305,214)"/>
<path d="M0 0 C4.75 0.58 7.97 2.55 12 5 C12 5.99 12 6.98 12 8 C8 6 4 4 0 2 C0 1.34 0 0.68 0 0 Z " fill="#001010" transform="translate(237,472)"/>
<path d="M0 0 C0.66 0 1.32 0 2 0 C2.29 3.71 2.44 7.3 2 11 C-0.38 13.69 -0.38 13.69 -3 15 C-3.66 15 -4.32 15 -5 15 C-3.85 12.53 -2.95 10.95 -1 9 C-0.54 6.8 -0.54 6.8 -0.38 4.38 C-0.26 3.15 -0.26 3.15 -0.15 1.9 C-0.1 1.27 -0.05 0.65 0 0 Z " fill="#000909" transform="translate(401,323)"/>
<path d="M0 0 C5.27 0.45 10.02 1.08 15 3 C15 3.66 15 4.32 15 5 C8.93 5.51 5.23 4.04 0 1 C0 0.67 0 0.34 0 0 Z " fill="#000E0E" transform="translate(469,321)"/>
<path d="M0 0 C0.66 0.66 1.32 1.32 2 2 C2.99 1.67 3.98 1.34 5 1 C5 1.66 5 2.32 5 3 C4.34 3 3.68 3 3 3 C3.33 3.99 3.66 4.98 4 6 C3.01 6.66 2.02 7.32 1 8 C0.01 7.67 -0.98 7.34 -2 7 C-2 7.99 -2 8.98 -2 10 C-2.66 9.67 -3.32 9.34 -4 9 C-2.68 6.03 -1.36 3.06 0 0 Z " fill="#002E2E" transform="translate(253,305)"/>
<path d="M0 0 C0.33 0 0.66 0 1 0 C1 1.98 1 3.96 1 6 C-1.96 7.48 -4.74 7.06 -8 7 C-8.33 6.01 -8.66 5.02 -9 4 C-6.69 4 -4.38 4 -2 4 C-1.34 2.68 -0.68 1.36 0 0 Z " fill="#00F3DC" transform="translate(480,302)"/>
<path d="M0 0 C0.75 1.69 0.75 1.69 1 4 C-0.75 6.75 -0.75 6.75 -3 9 C-3.99 9 -4.98 9 -6 9 C-6.25 6.75 -6.25 6.75 -6 4 C-2.76 0 -2.76 0 0 0 Z " fill="#00F8DD" transform="translate(417,257)"/>
<path d="M0 0 C1.32 0.95 2.63 1.91 3.94 2.88 C4.67 3.41 5.4 3.94 6.15 4.49 C8 6 8 6 9 8 C7.02 7.34 5.04 6.68 3 6 C3 6.99 3 7.98 3 9 C2.34 9 1.68 9 1 9 C0.67 8.34 0.34 7.68 0 7 C-2.02 6.35 -2.02 6.35 -4 6 C-2.62 4.5 -2.62 4.5 -1 3 C-0.34 3 0.32 3 1 3 C0.67 2.01 0.34 1.02 0 0 Z " fill="#004141" transform="translate(273,584)"/>
<path d="M0 0 C3.63 0.33 7.26 0.66 11 1 C11 1.66 11 2.32 11 3 C9.02 3 7.04 3 5 3 C4.67 4.98 4.34 6.96 4 9 C3.67 9 3.34 9 3 9 C3 6.69 3 4.38 3 2 C2.01 2.33 1.02 2.66 0 3 C0 2.01 0 1.02 0 0 Z " fill="#000E0E" transform="translate(324,496)"/>
<path d="M0 0 C0.77 2.32 1.05 3.78 0.55 6.2 C-0.34 10.7 -0.39 15.25 -0.62 19.82 C-1 23 -1 23 -3 26 C-2.89 22.23 -2.76 18.46 -2.62 14.69 C-2.58 13.08 -2.58 13.08 -2.53 11.44 C-2.49 10.41 -2.45 9.38 -2.41 8.32 C-2.38 7.38 -2.35 6.43 -2.32 5.45 C-2 3 -2 3 0 0 Z " fill="#00B7B6" transform="translate(347,462)"/>
<path d="M0 0 C0.33 0 0.66 0 1 0 C0.56 7.53 -0.14 14.68 -2 22 C-2.33 22 -2.66 22 -3 22 C-3.47 14.21 -2.16 7.47 0 0 Z " fill="#00C2BE" transform="translate(533,416)"/>
<path d="M0 0 C-5.29 4.87 -12.24 4.12 -19 4 C-19 3.67 -19 3.34 -19 3 C-12.5 0.99 -6.82 -0.39 0 0 Z " fill="#00AAA6" transform="translate(452,310)"/>
<path d="M0 0 C1.98 0 3.96 0 6 0 C6 0.66 6 1.32 6 2 C6.66 2.33 7.32 2.66 8 3 C6.72 4.71 5.38 6.37 4 8 C3.34 8 2.68 8 2 8 C2 8.99 2 9.98 2 11 C1.01 11 0.02 11 -1 11 C0.19 7.62 1.28 5.35 4 3 C2.68 2.67 1.36 2.34 0 2 C0 1.34 0 0.68 0 0 Z " fill="#002122" transform="translate(295,287)"/>
<path d="M0 0 C0.33 0.66 0.66 1.32 1 2 C3.97 2 6.94 2 10 2 C10 2.66 10 3.32 10 4 C9.01 4 8.02 4 7 4 C7 4.66 7 5.32 7 6 C5.68 6 4.36 6 3 6 C3 5.34 3 4.68 3 4 C1.35 4 -0.3 4 -2 4 C-1.34 2.68 -0.68 1.36 0 0 Z " fill="#003F3F" transform="translate(208,207)"/>
<path d="M0 0 C0.66 0 1.32 0 2 0 C2.85 1.39 3.68 2.79 4.5 4.19 C4.96 4.96 5.43 5.74 5.91 6.54 C7.11 9.24 7.21 11.08 7 14 C6.34 14 5.68 14 5 14 C4.67 11.69 4.34 9.38 4 7 C3.34 7 2.68 7 2 7 C2 6.01 2 5.02 2 4 C1.34 4 0.68 4 0 4 C0 2.68 0 1.36 0 0 Z " fill="#000E0F" transform="translate(461,436)"/>
<path d="M0 0 C1.32 0.33 2.64 0.66 4 1 C4 1.99 4 2.98 4 4 C4.66 4 5.32 4 6 4 C7.26 6.91 8 8.8 8 12 C8.66 12 9.32 12 10 12 C9.67 12.66 9.34 13.32 9 14 C5.75 12.38 5.3 9.25 4 6 C3.01 6 2.02 6 1 6 C0.67 4.02 0.34 2.04 0 0 Z " fill="#003A3B" transform="translate(122,335)"/>
<path d="M0 0 C1.32 0.99 2.64 1.98 4 3 C-0.95 3 -5.9 3 -11 3 C-11 2.34 -11 1.68 -11 1 C-7.3 -0.18 -3.86 -0.28 0 0 Z " fill="#000E0E" transform="translate(274,199)"/>
<path d="M0 0 C2 3.75 2 3.75 2 6 C1.34 6 0.68 6 0 6 C-0.66 7.98 -1.32 9.96 -2 12 C-1.34 12.33 -0.68 12.66 0 13 C-0.66 13.66 -1.32 14.32 -2 15 C-2.99 15 -3.98 15 -5 15 C-5.99 15.5 -5.99 15.5 -7 16 C-6 13.99 -5 11.99 -3.96 10 C-3.63 9.34 -3.29 8.68 -2.94 8 C-2.6 7.34 -2.25 6.68 -1.9 6 C-1.01 4.01 -0.46 2.13 0 0 Z " fill="#004647" transform="translate(322,510)"/>
<path d="M0 0 C3.36 0.58 4.64 1.64 7 4 C7.99 4 8.98 4 10 4 C8.35 5.65 6.7 7.3 5 9 C5 8.34 5 7.68 5 7 C4.01 6.67 3.02 6.34 2 6 C0.81 2.94 0.81 2.94 0 0 Z " fill="#002525" transform="translate(283,392)"/>
<path d="M0 0 C0 3.3 0 6.6 0 10 C-0.99 10 -1.98 10 -3 10 C-2.67 7.69 -2.34 5.38 -2 3 C-5.34 3.56 -8.03 4.35 -11 6 C-7.5 1.3 -6.03 0 0 0 Z " fill="#007475" transform="translate(206,356)"/>
<path d="M0 0 C0.66 0.33 1.32 0.66 2 1 C1.67 1.66 1.34 2.32 1 3 C1.66 3.33 2.32 3.66 3 4 C0.69 6.5 0.69 6.5 -2 9 C-2.99 9 -3.98 9 -5 9 C-5 8.01 -5 7.02 -5 6 C-3.68 5.34 -2.36 4.68 -1 4 C-2.32 3.67 -3.64 3.34 -5 3 C-2.62 1.44 -2.62 1.44 0 0 Z " fill="#003435" transform="translate(271,290)"/>
<path d="M0 0 C0.99 0.33 1.98 0.66 3 1 C3 4.3 3 7.6 3 11 C2.01 11 1.02 11 0 11 C0.57 14.93 0.57 14.93 3 18 C1.35 17.67 -0.3 17.34 -2 17 C-2 15.02 -2 13.04 -2 11 C-0.68 10.67 0.64 10.34 2 10 C1.86 8.72 1.71 7.44 1.56 6.12 C1.48 5.41 1.4 4.69 1.32 3.95 C1.09 1.93 1.09 1.93 0 0 Z " fill="#006263" transform="translate(322,257)"/>
<path d="M0 0 C1.98 0 3.96 0 6 0 C6 0.66 6 1.32 6 2 C4.74 2.7 3.46 3.38 2.19 4.06 C1.48 4.45 0.77 4.83 0.04 5.22 C-2 6 -2 6 -5 5 C-5 4.01 -5 3.02 -5 2 C-3.35 2 -1.7 2 0 2 C0 1.34 0 0.68 0 0 Z " fill="#000C0C" transform="translate(286,201)"/>
<path d="M0 0 C2.72 2.35 3.81 4.62 5 8 C4.01 7.67 3.02 7.34 2 7 C1.34 8.65 0.68 10.3 0 12 C-1.56 10.19 -1.56 10.19 -3 8 C-2.67 7.01 -2.34 6.02 -2 5 C-0.51 5.99 -0.51 5.99 1 7 C0.67 4.69 0.34 2.38 0 0 Z " fill="#003537" transform="translate(467,443)"/>
<path d="M0 0 C6.07 -0.25 11.16 0.3 17 2 C16.67 2.66 16.34 3.32 16 4 C10.43 3.52 5.33 2.7 0 1 C0 0.67 0 0.34 0 0 Z " fill="#00B5B1" transform="translate(159,372)"/>
<path d="M0 0 C0.99 0 1.98 0 3 0 C3 0.99 3 1.98 3 3 C4.98 3.66 6.96 4.32 9 5 C9.33 4.01 9.66 3.02 10 2 C10 3.32 10 4.64 10 6 C6.7 6 3.4 6 0 6 C0 5.34 0 4.68 0 4 C-1.32 3.67 -2.64 3.34 -4 3 C-3.34 2.67 -2.68 2.34 -2 2 C-1.01 2.33 -0.02 2.66 1 3 C0.67 2.01 0.34 1.02 0 0 Z " fill="#00CCC5" transform="translate(316,275)"/>
<path d="M0 0 C0.66 0 1.32 0 2 0 C1.67 4.95 1.34 9.9 1 15 C0.34 15 -0.32 15 -1 15 C-1.03 12.69 -1.05 10.38 -1.06 8.06 C-1.07 6.77 -1.09 5.49 -1.1 4.16 C-1 1 -1 1 0 0 Z " fill="#00090A" transform="translate(215,420)"/>
<path d="M0 0 C2.31 0 4.62 0 7 0 C7.33 1.32 7.66 2.64 8 4 C9.65 3.34 11.3 2.68 13 2 C12.34 3.32 11.68 4.64 11 6 C8.62 5.75 8.62 5.75 6 5 C5.3 3.68 4.63 2.35 4 1 C1.95 0.19 1.95 0.19 0 0 Z " fill="#001111" transform="translate(275,386)"/>
<path d="M0 0 C2.14 2.14 2.45 3.02 3.12 5.88 C3.29 6.55 3.46 7.23 3.63 7.93 C4 10 4 10 4 14 C3.34 14 2.68 14 2 14 C0.09 10.79 -0.22 8.46 -0.12 4.75 C-0.1 3.41 -0.1 3.41 -0.07 2.05 C-0.05 1.37 -0.02 0.7 0 0 Z " fill="#002222" transform="translate(120,331)"/>
<path d="M0 0 C0 1.98 0 3.96 0 6 C-1.98 6 -3.96 6 -6 6 C-6 4.68 -6 3.36 -6 2 C-3 0 -3 0 0 0 Z " fill="#009897" transform="translate(290,284)"/>
<path d="M0 0 C0.66 1.32 1.32 2.64 2 4 C5.3 3.67 8.6 3.34 12 3 C12 4.98 12 6.96 12 9 C10.35 8.67 8.7 8.34 7 8 C7.99 6.68 8.98 5.36 10 4 C5.55 4.5 5.55 4.5 1 5 C0.67 3.35 0.34 1.7 0 0 Z " fill="#004242" transform="translate(455,248)"/>
<path d="M0 0 C0 0.33 0 0.66 0 1 C-2.97 1.66 -5.94 2.32 -9 3 C-9 3.66 -9 4.32 -9 5 C-11.97 4.5 -11.97 4.5 -15 4 C-15 4.66 -15 5.32 -15 6 C-15.99 5.67 -16.98 5.34 -18 5 C-11.72 0.47 -7.65 -0.15 0 0 Z " fill="#003D3D" transform="translate(201,332)"/>
<path d="M0 0 C0.66 0.33 1.32 0.66 2 1 C-1 7 -1 7 -2.85 7.63 C-3.94 7.88 -3.94 7.88 -5.06 8.12 C-5.8 8.29 -6.53 8.46 -7.29 8.63 C-7.85 8.75 -8.42 8.88 -9 9 C-7.84 5.51 -6.86 4.9 -3.94 2.81 C-3.2 2.28 -2.47 1.75 -1.71 1.21 C-1.15 0.81 -0.58 0.41 0 0 Z " fill="#00393A" transform="translate(239,321)"/>
<path d="M0 0 C0.33 0.99 0.66 1.98 1 3 C-0.43 5.04 -0.43 5.04 -2.44 7.19 C-3.1 7.9 -3.75 8.62 -4.43 9.36 C-4.95 9.9 -5.47 10.44 -6 11 C-6.66 9.68 -7.32 8.36 -8 7 C-4.25 4 -4.25 4 -2 4 C-2 3.01 -2 2.02 -2 1 C-1.34 0.67 -0.68 0.34 0 0 Z " fill="#000F10" transform="translate(253,311)"/>
<path d="M0 0 C1.32 0.66 2.64 1.32 4 2 C4 2.66 4 3.32 4 4 C5.98 3.67 7.96 3.34 10 3 C10 3.66 10 4.32 10 5 C7.69 6.12 7.69 6.12 5 7 C4.01 6.34 3.02 5.68 2 5 C2 4.34 2 3.68 2 3 C0.68 2.67 -0.64 2.34 -2 2 C-1.34 2 -0.68 2 0 2 C0 1.34 0 0.68 0 0 Z " fill="#000C0C" transform="translate(477,290)"/>
<path d="M0 0 C-0.52 0.24 -1.04 0.48 -1.57 0.73 C-5.81 2.77 -9.43 4.88 -13 8 C-13 5.75 -13 5.75 -12 3 C-8.09 0.12 -4.75 -1.65 0 0 Z " fill="#00BBB5" transform="translate(278,254)"/>
<path d="M0 0 C0.66 0 1.32 0 2 0 C2 1.32 2 2.64 2 4 C1.36 4.12 0.72 4.25 0.06 4.38 C-0.62 4.58 -1.3 4.79 -2 5 C-2.33 5.66 -2.66 6.32 -3 7 C-2.01 7.33 -1.02 7.66 0 8 C-1 9 -1 9 -4.44 9.19 C-8 9 -8 9 -10 7 C-8.02 7 -6.04 7 -4 7 C-3.67 5.68 -3.34 4.36 -3 3 C-1.68 3 -0.36 3 1 3 C0.67 2.01 0.34 1.02 0 0 Z " fill="#004747" transform="translate(279,226)"/>
<path d="M0 0 C0.99 0.5 0.99 0.5 2 1 C1.99 2.11 1.98 3.22 1.96 4.36 C1.96 5.82 1.95 7.29 1.94 8.75 C1.93 9.48 1.92 10.21 1.91 10.96 C1.9 14.49 2.05 17.61 3 21 C2.34 21 1.68 21 1 21 C-0.17 18.65 -0.12 17.26 -0.1 14.65 C-0.09 13.8 -0.09 12.95 -0.09 12.07 C-0.08 11.18 -0.07 10.29 -0.06 9.38 C-0.06 8.48 -0.05 7.58 -0.05 6.66 C-0.04 4.44 -0.02 2.22 0 0 Z " fill="#000505" transform="translate(471,487)"/>
<path d="M0 0 C3.3 0 6.6 0 10 0 C10 0.99 10 1.98 10 3 C7.03 3 4.06 3 1 3 C0.67 2.01 0.34 1.02 0 0 Z " fill="#000E0E" transform="translate(264,388)"/>
<path d="M0 0 C0.66 0 1.32 0 2 0 C1.57 0.84 1.57 0.84 1.12 1.69 C-0.04 4.08 -1.03 6.52 -2 9 C-2.33 8.34 -2.66 7.68 -3 7 C-4.65 7.66 -6.3 8.32 -8 9 C-7.67 8.01 -7.34 7.02 -7 6 C-6.2 5.69 -5.39 5.38 -4.56 5.06 C-1.86 4.23 -1.86 4.23 -0.69 1.88 C-0.46 1.26 -0.23 0.64 0 0 Z " fill="#002323" transform="translate(398,331)"/>
<path d="M0 0 C1.32 0 2.64 0 4 0 C4 0.66 4 1.32 4 2 C4.78 1.96 5.57 1.92 6.38 1.88 C9 2 9 2 11 4 C11 5.32 11 6.64 11 8 C10.34 8 9.68 8 9 8 C8.67 6.68 8.34 5.36 8 4 C5.69 3.67 3.38 3.34 1 3 C0.67 2.01 0.34 1.02 0 0 Z " fill="#000F0F" transform="translate(115,318)"/>
<path d="M0 0 C0.66 0 1.32 0 2 0 C1.67 1.32 1.34 2.64 1 4 C-0.32 4.33 -1.64 4.66 -3 5 C-3 5.66 -3 6.32 -3 7 C-2.01 7 -1.02 7 0 7 C0 7.66 0 8.32 0 9 C-0.99 9 -1.98 9 -3 9 C-3.33 9.66 -3.66 10.32 -4 11 C-4 8.36 -4 5.72 -4 3 C-3.01 3 -2.02 3 -1 3 C-0.67 2.01 -0.34 1.02 0 0 Z " fill="#000D0E" transform="translate(332,272)"/>
<path d="M0 0 C0.66 0 1.32 0 2 0 C1.37 2.93 0.41 5.36 -1 8 C-1.33 6.68 -1.66 5.36 -2 4 C-3.65 4 -5.3 4 -7 4 C-5.75 2.44 -5.75 2.44 -4 1 C-1.81 1.31 -1.81 1.31 0 2 C0 1.34 0 0.68 0 0 Z " fill="#000E0F" transform="translate(433,239)"/>
<path d="M0 0 C0.66 0.33 1.32 0.66 2 1 C2 2.32 2 3.64 2 5 C2.66 5 3.32 5 4 5 C4 5.66 4 6.32 4 7 C3.34 7 2.68 7 2 7 C2.33 7.99 2.66 8.98 3 10 C2.01 10 1.02 10 0 10 C-0.19 8.52 -0.38 7.04 -0.56 5.56 C-0.67 4.74 -0.77 3.92 -0.88 3.07 C-0.92 2.38 -0.96 1.7 -1 1 C-0.67 0.67 -0.34 0.34 0 0 Z " fill="#000B0B" transform="translate(311,414)"/>
<path d="M0 0 C0.33 0.66 0.66 1.32 1 2 C-0.44 4.62 -0.44 4.62 -2 7 C-1.34 7.33 -0.68 7.66 0 8 C-0.66 9.32 -1.32 10.64 -2 12 C-2 11.01 -2 10.02 -2 9 C-2.99 9.33 -3.98 9.66 -5 10 C-4.5 5.6 -2.91 3.29 0 0 Z " fill="#004343" transform="translate(181,339)"/>
<path d="M0 0 C1.32 0.33 2.64 0.66 4 1 C4.12 1.97 4.25 2.94 4.38 3.94 C4.58 4.95 4.79 5.96 5 7 C5.66 7.33 6.32 7.66 7 8 C7 8.66 7 9.32 7 10 C5.35 9.67 3.7 9.34 2 9 C2 6.69 2 4.38 2 2 C1.34 2 0.68 2 0 2 C0 1.34 0 0.68 0 0 Z " fill="#000B0B" transform="translate(216,333)"/>
<path d="M0 0 C0.66 0 1.32 0 2 0 C3.61 3.21 3.06 6.44 3 10 C2.01 10 1.02 10 0 10 C0 6.7 0 3.4 0 0 Z " fill="#000E0E" transform="translate(134,324)"/>
<path d="M0 0 C1.61 0.09 3.21 0.2 4.81 0.31 C6.15 0.4 6.15 0.4 7.52 0.49 C10.31 1.06 11.24 1.82 13 4 C11.21 3.86 9.42 3.71 7.62 3.56 C6.63 3.48 5.63 3.4 4.6 3.32 C2 3 2 3 0 2 C0 1.34 0 0.68 0 0 Z " fill="#000A0A" transform="translate(290,231)"/>
<path d="M0 0 C2 2 2 2 2 3 C3.65 3.33 5.3 3.66 7 4 C7 3.34 7 2.68 7 2 C7.66 2 8.32 2 9 2 C9 2.99 9 3.98 9 5 C8.01 5 7.02 5 6 5 C6 6.65 6 8.3 6 10 C5.66 9.1 5.66 9.1 5.31 8.19 C3.66 5.43 1.76 4.56 -1 3 C-1.33 2.34 -1.66 1.68 -2 1 C-1.34 0.67 -0.68 0.34 0 0 Z " fill="#003434" transform="translate(437,256)"/>
<path d="M0 0 C0.33 0.99 0.66 1.98 1 3 C3.97 3.5 3.97 3.5 7 4 C6.01 4.5 6.01 4.5 5 5 C5 5.66 5 6.32 5 7 C6.32 7.66 7.64 8.32 9 9 C8.01 9.33 7.02 9.66 6 10 C5.75 9.38 5.5 8.76 5.25 8.12 C3.79 5.65 2.62 5.05 0 4 C0 2.68 0 1.36 0 0 Z " fill="#002D2D" transform="translate(232,467)"/>
<path d="M0 0 C5.44 1.49 5.44 1.49 11 3 C10.67 3.66 10.34 4.32 10 5 C2.25 4.12 2.25 4.12 0 3 C0 2.01 0 1.02 0 0 Z " fill="#000A0B" transform="translate(132,352)"/>
<path d="M0 0 C0.99 0.5 0.99 0.5 2 1 C2.38 2.96 2.38 2.96 2.56 5.38 C2.79 8.19 3.1 10.29 4 13 C3.01 13 2.02 13 1 13 C-0.1 8.59 -0.08 4.52 0 0 Z " fill="#000C0C" transform="translate(464,308)"/>
<path d="M0 0 C3.48 0.65 6.09 1.98 9 4 C9 4.66 9 5.32 9 6 C5.21 5.47 2.83 4.62 0 2 C0 1.34 0 0.68 0 0 Z " fill="#000D0E" transform="translate(276,590)"/>
<path d="M0 0 C0.33 0.66 0.66 1.32 1 2 C-1.39 5.24 -3.2 7.51 -7 9 C-7 8.01 -7 7.02 -7 6 C-6.36 5.73 -5.72 5.46 -5.06 5.19 C-2.67 4.11 -2.67 4.11 -2 1 C-1.34 0.67 -0.68 0.34 0 0 Z " fill="#000D0C" transform="translate(345,489)"/>
<path d="M0 0 C2.97 0.99 5.94 1.98 9 3 C9 3.33 9 3.66 9 4 C8.03 4.12 7.06 4.25 6.06 4.38 C4.55 4.68 4.55 4.68 3 5 C2.67 5.66 2.34 6.32 2 7 C1.01 6.67 0.02 6.34 -1 6 C-1 5.34 -1 4.68 -1 4 C-0.01 4 0.98 4 2 4 C2 3.34 2 2.68 2 2 C1.34 2 0.68 2 0 2 C0 1.34 0 0.68 0 0 Z " fill="#002626" transform="translate(444,407)"/>
<path d="M0 0 C0.99 0 1.98 0 3 0 C3 0.99 3 1.98 3 3 C4.65 3 6.3 3 8 3 C7.67 3.66 7.34 4.32 7 5 C4.69 5 2.38 5 0 5 C0 3.35 0 1.7 0 0 Z " fill="#000E0F" transform="translate(203,366)"/>
<path d="M0 0 C0.99 0 1.98 0 3 0 C2.66 3.18 1.98 4.02 -0.44 6.25 C-3 8 -3 8 -5 8 C-4.67 7.01 -4.34 6.02 -4 5 C-1.94 4.31 -1.94 4.31 0 4 C0 2.68 0 1.36 0 0 Z " fill="#002424" transform="translate(390,331)"/>
<path d="M0 0 C5.44 0.99 5.44 0.99 11 2 C11 2.66 11 3.32 11 4 C7.37 3.67 3.74 3.34 0 3 C0 2.01 0 1.02 0 0 Z " fill="#000B0B" transform="translate(288,278)"/>
<path d="M0 0 C1 3 1 3 -0.44 6.19 C-1.21 7.58 -1.21 7.58 -2 9 C-2.66 9 -3.32 9 -4 9 C-3.38 3.46 -3.38 3.46 -1.44 1.12 C-0.96 0.75 -0.49 0.38 0 0 Z " fill="#000C0C" transform="translate(314,528)"/>
<path d="M0 0 C1.32 0.33 2.64 0.66 4 1 C3.67 1.66 3.34 2.32 3 3 C4.98 3.66 6.96 4.32 9 5 C8.34 5.66 7.68 6.32 7 7 C4.53 6.01 4.53 6.01 2 5 C2 4.34 2 3.68 2 3 C1.34 3 0.68 3 0 3 C0 2.01 0 1.02 0 0 Z " fill="#001010" transform="translate(186,336)"/>
<path d="M0 0 C-2.25 2.06 -2.25 2.06 -5 4 C-7.31 3.75 -7.31 3.75 -9 3 C-9 2.34 -9 1.68 -9 1 C-5.57 -0.62 -3.62 -1.34 0 0 Z " fill="#000D0D" transform="translate(482,311)"/>
<path d="M0 0 C2.31 0 4.62 0 7 0 C7.33 0.66 7.66 1.32 8 2 C10.53 2.66 10.53 2.66 13 3 C13 3.33 13 3.66 13 4 C4.81 4.63 4.81 4.63 1.44 2 C0.73 1.01 0.73 1.01 0 0 Z " fill="#005D5D" transform="translate(243,250)"/>
<path d="M0 0 C3.63 0.33 7.26 0.66 11 1 C7.31 3.46 4.3 4.01 0 5 C0 3.35 0 1.7 0 0 Z " fill="#005F5F" transform="translate(253,214)"/>
<path d="M0 0 C1.17 0.76 2.34 1.53 3.5 2.31 C4.47 2.96 4.47 2.96 5.47 3.61 C5.97 4.07 6.48 4.53 7 5 C7 5.99 7 6.98 7 8 C4.14 6.72 1.98 5.47 0 3 C0 2.01 0 1.02 0 0 Z " fill="#000708" transform="translate(291,579)"/>
<path d="M0 0 C1.32 0.33 2.64 0.66 4 1 C3.67 2.32 3.34 3.64 3 5 C1.02 5.33 -0.96 5.66 -3 6 C-3 5.34 -3 4.68 -3 4 C-2.34 3.67 -1.68 3.34 -1 3 C-0.67 2.01 -0.34 1.02 0 0 Z " fill="#000E0F" transform="translate(252,519)"/>
<path d="M0 0 C0.99 0.33 1.98 0.66 3 1 C1.73 4.91 0.49 6.79 -3 9 C-2.01 6.03 -1.02 3.06 0 0 Z " fill="#001010" transform="translate(388,397)"/>
<path d="M0 0 C2.9 2.4 3.5 4.31 4 8 C3.01 8 2.02 8 1 8 C0.34 5.69 -0.32 3.38 -1 1 C-0.67 0.67 -0.34 0.34 0 0 Z " fill="#000C0D" transform="translate(125,340)"/>
<path d="M0 0 C0.66 0.33 1.32 0.66 2 1 C1.67 2.98 1.34 4.96 1 7 C0.34 7 -0.32 7 -1 7 C-1 7.66 -1 8.32 -1 9 C-1.66 8.67 -2.32 8.34 -3 8 C-2.81 7.22 -2.63 6.43 -2.44 5.62 C-1.74 3.03 -1.74 3.03 -3 1 C-2.01 0.67 -1.02 0.34 0 0 Z " fill="#004E4E" transform="translate(288,552)"/>
<path d="M0 0 C0.66 0.33 1.32 0.66 2 1 C2 1.99 2 2.98 2 4 C-4.75 5.12 -4.75 5.12 -7 4 C-1.73 0.78 -1.73 0.78 0 0 Z " fill="#004C4D" transform="translate(301,542)"/>
<path d="M0 0 C2.64 0.99 5.28 1.98 8 3 C5.43 4.62 4.32 5.04 1.25 4.62 C0.51 4.42 -0.24 4.21 -1 4 C-0.67 2.68 -0.34 1.36 0 0 Z " fill="#002525" transform="translate(154,370)"/>
<path d="M0 0 C1.32 0.33 2.64 0.66 4 1 C3.01 1 2.02 1 1 1 C1.33 3.31 1.66 5.62 2 8 C1.01 8.66 0.02 9.32 -1 10 C-1.99 9.67 -2.98 9.34 -4 9 C-3.01 8.34 -2.02 7.68 -1 7 C-0.26 3.43 -0.26 3.43 0 0 Z " fill="#000A0B" transform="translate(377,348)"/>
<path d="M0 0 C0.33 0 0.66 0 1 0 C1.33 1.98 1.66 3.96 2 6 C2.99 6 3.98 6 5 6 C4.67 7.65 4.34 9.3 4 11 C2 10 2 10 0 8 C-0.37 5.25 -0.18 2.8 0 0 Z " fill="#00BDB4" transform="translate(489,296)"/>
<path d="M0 0 C0.99 0.33 1.98 0.66 3 1 C2.34 3.31 1.68 5.62 1 8 C1.99 8 2.98 8 4 8 C4 8.66 4 9.32 4 10 C2.68 9.67 1.36 9.34 0 9 C0 6.03 0 3.06 0 0 Z " fill="#000507" transform="translate(326,209)"/>
<path d="M0 0 C1.98 0.5 1.98 0.5 4 1 C2.12 5.75 2.12 5.75 1 8 C0.34 8 -0.32 8 -1 8 C-0.67 5.36 -0.34 2.72 0 0 Z " fill="#000C0C" transform="translate(257,202)"/>
<path d="M0 0 C1.39 4.18 -0.18 6.13 -2 10 C-2.66 10 -3.32 10 -4 10 C-3.43 6.04 -2.19 3.33 0 0 Z " fill="#000708" transform="translate(467,466)"/>
<path d="M0 0 C2.31 1.98 4.62 3.96 7 6 C6.67 6.66 6.34 7.32 6 8 C3.56 7.38 3.56 7.38 1 6 C0.19 2.88 0.19 2.88 0 0 Z " fill="#004748" transform="translate(221,449)"/>
<path d="M0 0 C0.99 0 1.98 0 3 0 C3.33 2.97 3.66 5.94 4 9 C3.01 8.01 2.02 7.02 1 6 C1 4.68 1 3.36 1 2 C0.34 1.67 -0.32 1.34 -1 1 C-0.67 0.67 -0.34 0.34 0 0 Z " fill="#005353" transform="translate(504,296)"/>
<path d="M0 0 C2.31 0 4.62 0 7 0 C7.33 0.66 7.66 1.32 8 2 C6.35 2 4.7 2 3 2 C2.67 2.66 2.34 3.32 2 4 C2 3.34 2 2.68 2 2 C1.34 2 0.68 2 0 2 C-0.33 2.66 -0.66 3.32 -1 4 C-0.67 2.68 -0.34 1.36 0 0 Z " fill="#003A3A" transform="translate(470,283)"/>
<path d="M0 0 C1.98 0 3.96 0 6 0 C4.18 1.22 2.33 2.39 0.44 3.5 C-2.06 4.91 -2.06 4.91 -4 7 C-3.67 5.35 -3.34 3.7 -3 2 C-2.01 2 -1.02 2 0 2 C0 1.34 0 0.68 0 0 Z " fill="#002929" transform="translate(268,253)"/>
<path d="M0 0 C0.66 0.33 1.32 0.66 2 1 C1.67 1.99 1.34 2.98 1 4 C2.32 4.66 3.64 5.32 5 6 C4.67 7.32 4.34 8.64 4 10 C3.63 9.04 3.63 9.04 3.25 8.06 C2.18 5.81 2.18 5.81 -0.12 5.25 C-0.74 5.17 -1.36 5.09 -2 5 C-1.34 3.35 -0.68 1.7 0 0 Z " fill="#006161" transform="translate(260,205)"/>
<path d="M0 0 C0 0.33 0 0.66 0 1 C-9.41 3.11 -9.41 3.11 -14 4 C-13.67 3.34 -13.34 2.68 -13 2 C-12.01 2 -11.02 2 -10 2 C-10 1.34 -10 0.68 -10 0 C-6.72 -1.64 -3.57 -0.52 0 0 Z " fill="#003232" transform="translate(302,201)"/>
<path d="M0 0 C0.66 0 1.32 0 2 0 C2 1.32 2 2.64 2 4 C1.34 4 0.68 4 0 4 C0 4.99 0 5.98 0 7 C0.66 7.33 1.32 7.66 2 8 C1.01 8.5 1.01 8.5 0 9 C-0.66 8.34 -1.32 7.68 -2 7 C-1.67 4.38 -1.18 2.36 0 0 Z " fill="#002223" transform="translate(469,457)"/>
<path d="M0 0 C1.32 0 2.64 0 4 0 C4 1.98 4 3.96 4 6 C3.01 6 2.02 6 1 6 C1 4.68 1 3.36 1 2 C0.34 1.67 -0.32 1.34 -1 1 C-0.67 0.67 -0.34 0.34 0 0 Z " fill="#000F0F" transform="translate(456,412)"/>
<path d="M0 0 C1.65 1.65 3.3 3.3 5 5 C4.67 5.99 4.34 6.98 4 8 C2.35 6.35 0.7 4.7 -1 3 C-0.67 2.01 -0.34 1.02 0 0 Z " fill="#001313" transform="translate(488,302)"/>
<path d="M0 0 C0.99 0.66 1.98 1.32 3 2 C2.01 2.33 1.02 2.66 0 3 C-1.21 5 -1.21 5 -2 7 C-2.99 7 -3.98 7 -5 7 C-3.71 4.12 -2.34 2.13 0 0 Z " fill="#002626" transform="translate(469,297)"/>
<path d="M0 0 C0.93 2.61 1.15 3.64 0.06 6.25 C-0.46 7.12 -0.46 7.12 -1 8 C-1.99 8 -2.98 8 -4 8 C-4 7.01 -4 6.02 -4 5 C-3.34 4.67 -2.68 4.34 -2 4 C-0.87 1.98 -0.87 1.98 0 0 Z " fill="#002324" transform="translate(333,225)"/>
<path d="M0 0 C2.31 0 4.62 0 7 0 C6.01 0.33 5.02 0.66 4 1 C4 1.66 4 2.32 4 3 C4.66 3 5.32 3 6 3 C6 3.66 6 4.32 6 5 C3 5 3 5 1.31 3.62 C0 2 0 2 0 0 Z " fill="#000808" transform="translate(279,224)"/>
<path d="M0 0 C0.33 0 0.66 0 1 0 C1.22 1.96 1.43 3.92 1.62 5.88 C1.74 6.97 1.86 8.06 1.98 9.18 C1.98 10.11 1.99 11.04 2 12 C1.34 12.66 0.68 13.32 0 14 C-1.03 10.73 -0.96 8.14 -0.56 4.75 C-0.46 3.86 -0.36 2.97 -0.25 2.05 C-0.17 1.37 -0.09 0.7 0 0 Z " fill="#002223" transform="translate(260,557)"/>
<path d="M0 0 C0.99 0 1.98 0 3 0 C3.33 2.31 3.66 4.62 4 7 C2 5.75 2 5.75 0 4 C0 2.68 0 1.36 0 0 Z " fill="#00E9D8" transform="translate(468,476)"/>
<path d="M0 0 C2.64 0.33 5.28 0.66 8 1 C8.33 1.99 8.66 2.98 9 4 C3.46 3.38 3.46 3.38 1.12 1.44 C0.75 0.96 0.38 0.49 0 0 Z " fill="#00BAB6" transform="translate(444,406)"/>
<path d="M0 0 C3 0 3 0 4.69 1.31 C6 3 6 3 6 6 C5.01 6 4.02 6 3 6 C3 5.01 3 4.02 3 3 C2.01 2.67 1.02 2.34 0 2 C0 1.34 0 0.68 0 0 Z " fill="#000D0E" transform="translate(126,352)"/>
<path d="M0 0 C1.32 0.33 2.64 0.66 4 1 C4 1.66 4 2.32 4 3 C4.99 3.33 5.98 3.66 7 4 C7 4.66 7 5.32 7 6 C5.19 5.81 5.19 5.81 3 5 C1.25 2.44 1.25 2.44 0 0 Z " fill="#002323" transform="translate(214,339)"/>
<path d="M0 0 C1.75 0.12 1.75 0.12 4 1 C6.25 4.06 6.25 4.06 8 7 C6.35 7 4.7 7 3 7 C2.81 5.82 2.81 5.82 2.62 4.62 C2.21 1.86 2.21 1.86 0 0 Z " fill="#004141" transform="translate(458,288)"/>
<path d="M0 0 C1.6 3.2 0.03 5.72 -1 9 C-1.66 8.67 -2.32 8.34 -3 8 C-3 5.69 -3 3.38 -3 1 C-2.01 0.67 -1.02 0.34 0 0 Z " fill="#000D0D" transform="translate(423,262)"/>
<path d="M0 0 C1.32 0.33 2.64 0.66 4 1 C4 2.32 4 3.64 4 5 C3.01 5 2.02 5 1 5 C0.67 3.35 0.34 1.7 0 0 Z " fill="#000F0F" transform="translate(424,256)"/>
<path d="M0 0 C0.66 0 1.32 0 2 0 C1.34 2.64 0.68 5.28 0 8 C-0.66 8 -1.32 8 -2 8 C-1.12 1.12 -1.12 1.12 0 0 Z " fill="#000A0B" transform="translate(360,444)"/>
<path d="M0 0 C0.99 0.5 0.99 0.5 2 1 C2 1.66 2 2.32 2 3 C3.32 3 4.64 3 6 3 C6 3.66 6 4.32 6 5 C4.02 5 2.04 5 0 5 C0 3.35 0 1.7 0 0 Z " fill="#000D0E" transform="translate(289,398)"/>
<path d="M0 0 C-0.33 0.99 -0.66 1.98 -1 3 C-2.98 3.33 -4.96 3.66 -7 4 C-7 3.34 -7 2.68 -7 2 C-4.35 0.54 -3.11 0 0 0 Z " fill="#002525" transform="translate(191,359)"/>
<path d="M0 0 C0.33 0 0.66 0 1 0 C1.33 2.31 1.66 4.62 2 7 C0.35 7.66 -1.3 8.32 -3 9 C-3 8.01 -3 7.02 -3 6 C-2.34 5.67 -1.68 5.34 -1 5 C-0.34 2.47 -0.34 2.47 0 0 Z " fill="#00292A" transform="translate(379,351)"/>
<path d="M0 0 C0.66 0 1.32 0 2 0 C2 0.99 2 1.98 2 3 C1.01 3.5 1.01 3.5 0 4 C0 5.65 0 7.3 0 9 C-0.66 9 -1.32 9 -2 9 C-2.12 5.62 -2.12 5.62 -2 2 C-1.34 1.34 -0.68 0.68 0 0 Z " fill="#000505" transform="translate(503,298)"/>
<path d="M0 0 C0.99 0.33 1.98 0.66 3 1 C2.2 1.45 1.39 1.91 0.56 2.38 C-2.09 3.75 -2.09 3.75 -3 6 C-3.66 6 -4.32 6 -5 6 C-3.63 2.84 -3.01 2.01 0 0 Z " fill="#000506" transform="translate(268,293)"/>
<path d="M0 0 C1.98 0 3.96 0 6 0 C6 0.66 6 1.32 6 2 C6.66 2.33 7.32 2.66 8 3 C4.89 3 2.89 2.83 0 2 C0 1.34 0 0.68 0 0 Z M2 5 C4 6 4 6 4 6 Z " fill="#003E3F" transform="translate(295,287)"/>
<path d="M0 0 C0.66 0 1.32 0 2 0 C1.67 1.65 1.34 3.3 1 5 C-0.32 5 -1.64 5 -3 5 C-3 4.34 -3 3.68 -3 3 C-2.34 3 -1.68 3 -1 3 C-0.67 2.01 -0.34 1.02 0 0 Z " fill="#00A7A3" transform="translate(293,274)"/>
<path d="M0 0 C0.66 0 1.32 0 2 0 C2 1.32 2 2.64 2 4 C2.99 4 3.98 4 5 4 C5 4.66 5 5.32 5 6 C3.35 5.67 1.7 5.34 0 5 C0 3.35 0 1.7 0 0 Z " fill="#00090A" transform="translate(322,268)"/>
<path d="M0 0 C4.88 1.75 4.88 1.75 6 4 C4.02 4.33 2.04 4.66 0 5 C0 3.35 0 1.7 0 0 Z " fill="#000F0F" transform="translate(241,241)"/>
<path d="M0 0 C1.26 3.77 0.37 5.37 -1 9 C-1.66 9 -2.32 9 -3 9 C-2.25 2.25 -2.25 2.25 0 0 Z " fill="#000909" transform="translate(448,235)"/>
<path d="M0 0 C2.64 0.33 5.28 0.66 8 1 C4.56 3.29 3.01 3.18 -1 3 C-0.67 2.01 -0.34 1.02 0 0 Z " fill="#002727" transform="translate(452,230)"/>
<path d="M0 0 C1.98 0.5 1.98 0.5 4 1 C3.67 2.65 3.34 4.3 3 6 C1.68 5.67 0.36 5.34 -1 5 C-0.01 4.67 0.98 4.34 2 4 C1.34 2.68 0.68 1.36 0 0 Z " fill="#00B1AD" transform="translate(307,217)"/>
</svg>
